<svg width="32" height="33" viewBox="0 0 32 33" fill="none" xmlns="http://www.w3.org/2000/svg">
<path d="M5.82917 10.2299C5.84551 10.0676 5.82363 9.90373 5.76528 9.75139C5.70694 9.59905 5.61375 9.46247 5.49317 9.3526L3.0025 6.32993V5.87793H10.7332L16.7092 19.0846L21.9625 5.87793H29.3332V6.32993L27.2038 8.3846C27.1136 8.45426 27.044 8.54712 27.0024 8.65327C26.9609 8.75941 26.9489 8.87485 26.9678 8.98726V24.0993C26.9489 24.2117 26.9609 24.3271 27.0024 24.4333C27.044 24.5394 27.1136 24.6323 27.2038 24.7019L29.2838 26.7579V27.2113H18.8252V26.7593L20.9798 24.6526C21.1918 24.4393 21.1918 24.3766 21.1918 24.0513V11.8353L15.2025 27.1606H14.3945L7.42117 11.8353V22.1073C7.36384 22.5379 7.5065 22.9739 7.80784 23.2859L10.6092 26.7099V27.1606H2.6665V26.7099L5.4665 23.2859C5.61465 23.1313 5.72461 22.9442 5.78757 22.7396C5.85054 22.5349 5.86479 22.3184 5.82917 22.1073V10.2299Z" fill="#0D173B"/>
</svg>
