<svg width="32" height="33" viewBox="0 0 32 33" fill="none" xmlns="http://www.w3.org/2000/svg">
<path d="M31.5237 7.12688C30.4104 7.62021 29.2144 7.95354 27.957 8.10421C29.2544 7.32793 30.2249 6.10617 30.6877 4.66688C29.4688 5.39086 28.1348 5.90047 26.7437 6.17354C25.8082 5.1747 24.5691 4.51265 23.2188 4.29018C21.8685 4.06771 20.4825 4.29727 19.276 4.94321C18.0695 5.58916 17.1101 6.61536 16.5466 7.86248C15.9831 9.1096 15.8471 10.5079 16.1597 11.8402C13.6899 11.7162 11.2739 11.0743 9.06826 9.95608C6.86265 8.83789 4.91681 7.26843 3.35702 5.34954C2.82369 6.26954 2.51702 7.33621 2.51702 8.47221C2.51643 9.49487 2.76827 10.5019 3.2502 11.4039C3.73212 12.3058 4.42924 13.0749 5.27969 13.6429C4.29339 13.6115 3.32885 13.345 2.46636 12.8655V12.9455C2.46626 14.3799 2.9624 15.77 3.8706 16.8802C4.7788 17.9904 6.04312 18.7521 7.44902 19.0362C6.53407 19.2838 5.57481 19.3203 4.64369 19.1429C5.04035 20.377 5.81302 21.4562 6.85351 22.2294C7.89401 23.0026 9.15025 23.4311 10.4464 23.4549C8.24613 25.1821 5.52887 26.119 2.73169 26.1149C2.2362 26.115 1.74113 26.0861 1.24902 26.0282C4.08833 27.8538 7.39348 28.8226 10.769 28.8189C22.1957 28.8189 28.4424 19.3549 28.4424 11.1469C28.4424 10.8802 28.4357 10.6109 28.4237 10.3442C29.6387 9.46551 30.6876 8.3774 31.521 7.13088L31.5237 7.12688Z" fill="#0D173B"/>
</svg>
