<svg width="48" height="48" viewBox="0 0 48 48" fill="none" xmlns="http://www.w3.org/2000/svg">
<path d="M46.5049 10.1763C44.8639 10.9035 43.1011 11.3948 41.2478 11.6168C43.16 10.4726 44.5906 8.67181 45.2727 6.55037C43.4761 7.61749 41.5099 8.36863 39.4594 8.77113C38.0805 7.29887 36.2542 6.32303 34.2639 5.99512C32.2735 5.66721 30.2307 6.00557 28.4524 6.95767C26.6741 7.90977 25.2598 9.42235 24.4293 11.2606C23.5987 13.0988 23.3983 15.1598 23.859 17.1236C20.2187 16.9408 16.6575 15.9946 13.4066 14.3464C10.1556 12.6983 7.28751 10.3849 4.98845 7.55659C4.20234 8.91263 3.75033 10.4848 3.75033 12.1593C3.74945 13.6666 4.12065 15.1509 4.83099 16.4804C5.54133 17.8099 6.56885 18.9435 7.82238 19.7806C6.36862 19.7344 4.94693 19.3415 3.67565 18.6349V18.7528C3.6755 20.8669 4.40679 22.916 5.74544 24.5523C7.08409 26.1886 8.94764 27.3114 11.0199 27.7302C9.67128 28.0951 8.25737 28.1489 6.88494 27.8874C7.46961 29.7065 8.60848 31.2972 10.1421 32.4368C11.6758 33.5765 13.5274 34.2081 15.4378 34.2431C12.1948 36.7889 8.18966 38.1699 4.06674 38.1638C3.3364 38.164 2.60668 38.1214 1.88135 38.0361C6.06636 40.7269 10.938 42.1549 15.9134 42.1494C32.7558 42.1494 41.9632 28.1999 41.9632 16.1016C41.9632 15.7086 41.9533 15.3116 41.9357 14.9185C43.7266 13.6233 45.2725 12.0195 46.501 10.1822L46.5049 10.1763Z" fill="white"/>
</svg>
