<svg width="32" height="32" viewBox="0 0 32 32" fill="none" xmlns="http://www.w3.org/2000/svg">
<path d="M5.82917 9.6855C5.84551 9.52318 5.82363 9.3593 5.76528 9.20696C5.70694 9.05461 5.61375 8.91804 5.49317 8.80816L3.0025 5.7855V5.3335H10.7332L16.7092 18.5402L21.9625 5.3335H29.3332V5.7855L27.2038 7.84016C27.1136 7.90983 27.044 8.00269 27.0024 8.10883C26.9609 8.21498 26.9489 8.33042 26.9678 8.44283V23.5548C26.9489 23.6672 26.9609 23.7827 27.0024 23.8888C27.044 23.995 27.1136 24.0878 27.2038 24.1575L29.2838 26.2135V26.6668H18.8252V26.2148L20.9798 24.1082C21.1918 23.8948 21.1918 23.8322 21.1918 23.5068V11.2908L15.2025 26.6162H14.3945L7.42117 11.2908V21.5628C7.36384 21.9935 7.5065 22.4295 7.80784 22.7415L10.6092 26.1655V26.6162H2.6665V26.1655L5.4665 22.7415C5.61465 22.5869 5.72461 22.3998 5.78757 22.1952C5.85054 21.9905 5.86479 21.774 5.82917 21.5628V9.6855Z" fill="#FEF4EA"/>
</svg>
