<svg width="48" height="48" viewBox="0 0 48 48" fill="none" xmlns="http://www.w3.org/2000/svg">
<path d="M9.4258 14.7501C9.44988 14.5109 9.41763 14.2693 9.33163 14.0448C9.24563 13.8202 9.10828 13.6189 8.93055 13.457L5.25941 9.00168V8.33545H16.6541L25.4625 27.8015L33.2056 8.33545H44.0697V9.00168L40.9311 12.0302C40.7982 12.1328 40.6955 12.2697 40.6343 12.4262C40.573 12.5826 40.5554 12.7528 40.5833 12.9185V35.1929C40.5554 35.3586 40.573 35.5288 40.6343 35.6852C40.6955 35.8417 40.7982 35.9785 40.9311 36.0812L43.997 39.1117V39.7799H28.5813V39.1136L31.7572 36.0085C32.0697 35.6941 32.0697 35.6017 32.0697 35.1222V17.1163L23.2417 39.7052H22.0507L11.7723 17.1163V32.2568C11.6878 32.8916 11.8981 33.5342 12.3423 33.9941L16.4713 39.0409V39.7052H4.76416V39.0409L8.89124 33.9941C9.10961 33.7662 9.27167 33.4905 9.36449 33.1888C9.4573 32.8872 9.4783 32.568 9.4258 32.2568V14.7501Z" fill="white"/>
</svg>
