<svg width="428" height="765" viewBox="0 0 428 765" fill="none" xmlns="http://www.w3.org/2000/svg">
<rect width="428" height="765" fill="#5447EF"/>
<path fill-rule="evenodd" clip-rule="evenodd" d="M21.5571 51.4188C23.4134 51.9606 26.0777 50.6945 27.9906 48.2105C30.2322 45.2997 30.5934 41.8188 28.7974 40.4357C27.0014 39.0526 23.7283 40.291 21.4867 43.2018C19.5672 45.6944 19.0265 48.605 20.0385 50.2584L17.6072 52.183C16.2113 53.6089 16.0559 54.847 16.3106 56.1864C16.629 57.8607 16.1791 59.8366 13.3564 61.4142C10.5337 62.9919 10.9127 64.3556 11.8871 65.6419C12.8616 66.9283 12.0586 67.739 10.9192 68.2907C9.59045 68.934 10.5188 69.3519 10.936 69.1968C11.9658 69.0967 14.0085 68.4546 13.9404 66.6872C13.8965 65.5485 13.5818 65.008 13.3699 64.6441C13.1706 64.302 13.0623 64.116 13.3552 63.7356C13.6077 63.4077 14.1372 63.1249 14.7539 62.7955C15.6135 62.3363 16.6424 61.7868 17.3263 60.8987C18.4489 59.4409 18.5881 57.4044 18.1743 56.5499C17.7967 55.77 18.5269 53.1653 21.5571 51.4188Z" fill="white" fill-opacity="0.37"/>
<path opacity="0.3" fill-rule="evenodd" clip-rule="evenodd" d="M219.59 177.95C217.733 178.492 215.069 177.226 213.156 174.742C210.915 171.831 210.554 168.35 212.35 166.967C214.146 165.584 217.419 166.823 219.66 169.733C221.58 172.226 222.12 175.137 221.108 176.79L223.54 178.715C224.936 180.141 225.091 181.379 224.836 182.718C224.518 184.392 224.968 186.368 227.791 187.946C230.613 189.523 230.234 190.887 229.26 192.174C228.285 193.46 229.088 194.271 230.228 194.822C231.557 195.466 230.628 195.883 230.211 195.728C229.181 195.628 227.139 194.986 227.207 193.219C227.25 192.08 227.565 191.54 227.777 191.176C227.976 190.834 228.085 190.648 227.792 190.267C227.539 189.939 227.01 189.656 226.393 189.327C225.534 188.868 224.505 188.318 223.821 187.43C222.698 185.972 222.559 183.936 222.973 183.081C223.35 182.302 222.62 179.697 219.59 177.95Z" fill="white" fill-opacity="0.37"/>
<path opacity="0.8" fill-rule="evenodd" clip-rule="evenodd" d="M393.677 37.5484C391.821 38.0903 389.156 36.8242 387.243 34.3401C385.002 31.4293 384.64 27.9485 386.437 26.5654C388.233 25.1823 391.506 26.4207 393.747 29.3315C395.667 31.824 396.207 34.7345 395.195 36.388L397.627 38.3125C399.023 39.7385 399.178 40.9765 398.923 42.3159C398.605 43.9902 399.055 45.9661 401.877 47.5438C404.7 49.1214 404.321 50.4851 403.347 51.7715C402.372 53.0578 403.175 53.8685 404.315 54.4202C405.643 55.0636 404.715 55.4814 404.298 55.3263C403.268 55.2262 401.225 54.5841 401.293 52.8168C401.337 51.678 401.652 51.1375 401.864 50.7736C402.063 50.4315 402.172 50.2455 401.879 49.8651C401.626 49.5373 401.097 49.2544 400.48 48.925C399.62 48.4659 398.592 47.9163 397.908 47.0282C396.785 45.5704 396.646 43.534 397.06 42.6794C397.437 41.8996 396.707 39.2949 393.677 37.5484Z" fill="white" fill-opacity="0.37"/>
<path opacity="0.7" fill-rule="evenodd" clip-rule="evenodd" d="M43.5209 201.445C41.6646 201.987 39.0004 200.721 37.0875 198.237C34.8459 195.326 34.4847 191.845 36.2807 190.462C38.0768 189.079 41.3499 190.317 43.5914 193.228C45.511 195.721 46.0516 198.631 45.0396 200.285L47.471 202.209C48.8668 203.635 49.0223 204.873 48.7676 206.213C48.4492 207.887 48.899 209.863 51.7217 211.441C54.5444 213.018 54.1655 214.382 53.191 215.668C52.2166 216.955 53.0196 217.765 54.159 218.317C55.4877 218.96 54.5594 219.378 54.1422 219.223C53.1124 219.123 51.0697 218.481 51.1378 216.714C51.1816 215.575 51.4964 215.034 51.7083 214.67C51.9075 214.328 52.0159 214.142 51.723 213.762C51.4705 213.434 50.9409 213.151 50.3243 212.822C49.4647 212.363 48.4358 211.813 47.7519 210.925C46.6292 209.467 46.4901 207.431 46.9038 206.576C47.2814 205.796 46.5512 203.192 43.5209 201.445Z" fill="white" fill-opacity="0.37"/>
<path opacity="0.4" fill-rule="evenodd" clip-rule="evenodd" d="M406.248 201.445C408.104 201.987 410.768 200.721 412.681 198.237C414.923 195.326 415.284 191.845 413.488 190.462C411.692 189.079 408.419 190.317 406.177 193.228C404.258 195.721 403.717 198.631 404.729 200.285L402.298 202.209C400.902 203.635 400.746 204.873 401.001 206.213C401.319 207.887 400.87 209.863 398.047 211.441C395.224 213.018 395.603 214.382 396.578 215.668C397.552 216.955 396.749 217.765 395.61 218.317C394.281 218.96 395.209 219.378 395.626 219.223C396.656 219.123 398.699 218.481 398.631 216.714C398.587 215.575 398.272 215.034 398.06 214.67C397.861 214.328 397.753 214.142 398.046 213.762C398.298 213.434 398.828 213.151 399.444 212.822C400.304 212.363 401.333 211.813 402.017 210.925C403.139 209.467 403.278 207.431 402.865 206.576C402.487 205.796 403.217 203.192 406.248 201.445Z" fill="white" fill-opacity="0.37"/>
<path opacity="0.4" fill-rule="evenodd" clip-rule="evenodd" d="M218.745 64.4875C220.601 65.0292 223.266 63.7631 225.179 61.2791C227.42 58.3683 227.781 54.8874 225.985 53.5043C224.189 52.1212 220.916 53.3597 218.675 56.2704C216.755 58.763 216.215 61.6736 217.227 63.327L214.795 65.2516C213.399 66.6776 213.244 67.9156 213.499 69.2551C213.817 70.9294 213.367 72.9053 210.544 74.4829C207.722 76.0606 208.101 77.4243 209.075 78.7106C210.05 79.9969 209.247 80.8077 208.107 81.3593C206.778 82.0027 207.707 82.4206 208.124 82.2655C209.154 82.1653 211.196 81.5233 211.128 79.7559C211.084 78.6171 210.77 78.0767 210.558 77.7128C210.359 77.3707 210.25 77.1846 210.543 76.8043C210.796 76.4764 211.325 76.1936 211.942 75.8642C212.801 75.405 213.83 74.8554 214.514 73.9673C215.637 72.5095 215.776 70.4731 215.362 69.6186C214.985 68.8387 215.715 66.2339 218.745 64.4875Z" fill="white" fill-opacity="0.37"/>
<path fill-rule="evenodd" clip-rule="evenodd" d="M21.5571 355.358C23.4134 355.9 26.0777 354.633 27.9906 352.149C30.2322 349.239 30.5934 345.758 28.7974 344.375C27.0014 342.992 23.7283 344.23 21.4867 347.141C19.5672 349.633 19.0265 352.544 20.0385 354.197L17.6072 356.122C16.2113 357.548 16.0559 358.786 16.3106 360.125C16.629 361.8 16.1791 363.776 13.3564 365.353C10.5337 366.931 10.9127 368.295 11.8871 369.581C12.8616 370.867 12.0586 371.678 10.9192 372.23C9.59045 372.873 10.5188 373.291 10.936 373.136C11.9658 373.036 14.0085 372.394 13.9404 370.626C13.8965 369.487 13.5818 368.947 13.3699 368.583C13.1706 368.241 13.0623 368.055 13.3552 367.675C13.6077 367.347 14.1372 367.064 14.7539 366.734C15.6135 366.275 16.6424 365.726 17.3263 364.838C18.4489 363.38 18.5881 361.343 18.1743 360.489C17.7967 359.709 18.5269 357.104 21.5571 355.358Z" fill="white" fill-opacity="0.37"/>
<path opacity="0.3" fill-rule="evenodd" clip-rule="evenodd" d="M219.59 481.889C217.733 482.431 215.069 481.165 213.156 478.681C210.915 475.77 210.554 472.289 212.35 470.906C214.146 469.523 217.419 470.762 219.66 473.672C221.58 476.165 222.12 479.075 221.108 480.729L223.54 482.654C224.936 484.079 225.091 485.318 224.836 486.657C224.518 488.331 224.968 490.307 227.791 491.885C230.613 493.462 230.234 494.826 229.26 496.112C228.285 497.399 229.088 498.21 230.228 498.761C231.557 499.405 230.628 499.822 230.211 499.667C229.181 499.567 227.139 498.925 227.207 497.158C227.25 496.019 227.565 495.479 227.777 495.115C227.976 494.773 228.085 494.586 227.792 494.206C227.539 493.878 227.01 493.595 226.393 493.266C225.534 492.807 224.505 492.257 223.821 491.369C222.698 489.911 222.559 487.875 222.973 487.02C223.35 486.241 222.62 483.636 219.59 481.889Z" fill="white" fill-opacity="0.37"/>
<path opacity="0.8" fill-rule="evenodd" clip-rule="evenodd" d="M393.677 341.487C391.821 342.029 389.156 340.763 387.243 338.279C385.002 335.368 384.64 331.887 386.437 330.504C388.233 329.121 391.506 330.36 393.747 333.27C395.667 335.763 396.207 338.673 395.195 340.327L397.627 342.251C399.023 343.677 399.178 344.915 398.923 346.255C398.605 347.929 399.055 349.905 401.877 351.483C404.7 353.06 404.321 354.424 403.347 355.71C402.372 356.997 403.175 357.807 404.315 358.359C405.643 359.003 404.715 359.42 404.298 359.265C403.268 359.165 401.225 358.523 401.293 356.756C401.337 355.617 401.652 355.076 401.864 354.713C402.063 354.371 402.172 354.184 401.879 353.804C401.626 353.476 401.097 353.193 400.48 352.864C399.62 352.405 398.592 351.855 397.908 350.967C396.785 349.509 396.646 347.473 397.06 346.618C397.437 345.839 396.707 343.234 393.677 341.487Z" fill="white" fill-opacity="0.37"/>
<path opacity="0.8" fill-rule="evenodd" clip-rule="evenodd" d="M219.968 341.487C218.112 342.029 215.447 340.763 213.534 338.279C211.293 335.368 210.932 331.887 212.728 330.504C214.524 329.121 217.797 330.36 220.038 333.27C221.958 335.763 222.498 338.673 221.486 340.327L223.918 342.251C225.314 343.677 225.469 344.915 225.214 346.255C224.896 347.929 225.346 349.905 228.168 351.483C230.991 353.06 230.612 354.424 229.638 355.71C228.663 356.997 229.466 357.807 230.606 358.359C231.934 359.003 231.006 359.42 230.589 359.265C229.559 359.165 227.516 358.523 227.585 356.756C227.628 355.617 227.943 355.076 228.155 354.713C228.354 354.371 228.463 354.184 228.17 353.804C227.917 353.476 227.388 353.193 226.771 352.864C225.911 352.405 224.883 351.855 224.199 350.967C223.076 349.509 222.937 347.473 223.351 346.618C223.728 345.839 222.998 343.234 219.968 341.487Z" fill="white" fill-opacity="0.37"/>
<path opacity="0.7" fill-rule="evenodd" clip-rule="evenodd" d="M43.5209 505.384C41.6646 505.926 39.0004 504.66 37.0875 502.176C34.8459 499.265 34.4847 495.784 36.2807 494.401C38.0768 493.018 41.3499 494.256 43.5914 497.167C45.511 499.66 46.0516 502.57 45.0396 504.224L47.471 506.148C48.8668 507.574 49.0223 508.812 48.7676 510.152C48.4492 511.826 48.899 513.802 51.7217 515.38C54.5444 516.957 54.1655 518.321 53.191 519.607C52.2166 520.894 53.0196 521.704 54.159 522.256C55.4877 522.899 54.5594 523.317 54.1422 523.162C53.1124 523.062 51.0697 522.42 51.1378 520.653C51.1816 519.514 51.4964 518.973 51.7083 518.609C51.9075 518.267 52.0159 518.081 51.723 517.701C51.4705 517.373 50.9409 517.09 50.3243 516.761C49.4647 516.302 48.4358 515.752 47.7519 514.864C46.6292 513.406 46.4901 511.37 46.9038 510.515C47.2814 509.735 46.5512 507.131 43.5209 505.384Z" fill="white" fill-opacity="0.37"/>
<path opacity="0.4" fill-rule="evenodd" clip-rule="evenodd" d="M406.248 505.384C408.104 505.926 410.768 504.66 412.681 502.176C414.923 499.265 415.284 495.784 413.488 494.401C411.692 493.018 408.419 494.256 406.177 497.167C404.258 499.66 403.717 502.57 404.729 504.224L402.298 506.148C400.902 507.574 400.746 508.812 401.001 510.152C401.319 511.826 400.87 513.802 398.047 515.38C395.224 516.957 395.603 518.321 396.578 519.607C397.552 520.894 396.749 521.704 395.61 522.256C394.281 522.899 395.209 523.317 395.626 523.162C396.656 523.062 398.699 522.42 398.631 520.653C398.587 519.514 398.272 518.973 398.06 518.609C397.861 518.267 397.753 518.081 398.046 517.701C398.298 517.373 398.828 517.09 399.444 516.761C400.304 516.302 401.333 515.752 402.017 514.864C403.139 513.406 403.278 511.37 402.865 510.515C402.487 509.735 403.217 507.131 406.248 505.384Z" fill="white" fill-opacity="0.37"/>
<path fill-rule="evenodd" clip-rule="evenodd" d="M21.5571 682.358C23.4134 682.9 26.0777 681.633 27.9906 679.149C30.2322 676.239 30.5934 672.758 28.7974 671.375C27.0014 669.992 23.7283 671.23 21.4867 674.141C19.5672 676.633 19.0265 679.544 20.0385 681.197L17.6072 683.122C16.2113 684.548 16.0559 685.786 16.3106 687.125C16.629 688.8 16.1791 690.776 13.3564 692.353C10.5337 693.931 10.9127 695.295 11.8871 696.581C12.8616 697.867 12.0586 698.678 10.9192 699.23C9.59045 699.873 10.5188 700.291 10.936 700.136C11.9658 700.036 14.0085 699.394 13.9404 697.626C13.8965 696.487 13.5818 695.947 13.3699 695.583C13.1706 695.241 13.0623 695.055 13.3552 694.675C13.6077 694.347 14.1372 694.064 14.7539 693.734C15.6135 693.275 16.6424 692.726 17.3263 691.838C18.4489 690.38 18.5881 688.343 18.1743 687.489C17.7967 686.709 18.5269 684.104 21.5571 682.358Z" fill="white" fill-opacity="0.37"/>
<path opacity="0.8" fill-rule="evenodd" clip-rule="evenodd" d="M393.677 668.487C391.821 669.029 389.156 667.763 387.243 665.279C385.002 662.368 384.64 658.887 386.437 657.504C388.233 656.121 391.506 657.36 393.747 660.27C395.667 662.763 396.207 665.673 395.195 667.327L397.627 669.251C399.023 670.677 399.178 671.915 398.923 673.255C398.605 674.929 399.055 676.905 401.877 678.483C404.7 680.06 404.321 681.424 403.347 682.71C402.372 683.997 403.175 684.807 404.315 685.359C405.643 686.003 404.715 686.42 404.298 686.265C403.268 686.165 401.225 685.523 401.293 683.756C401.337 682.617 401.652 682.076 401.864 681.713C402.063 681.371 402.172 681.184 401.879 680.804C401.626 680.476 401.097 680.193 400.48 679.864C399.62 679.405 398.592 678.855 397.908 677.967C396.785 676.509 396.646 674.473 397.06 673.618C397.437 672.839 396.707 670.234 393.677 668.487Z" fill="white" fill-opacity="0.37"/>
<path opacity="0.8" fill-rule="evenodd" clip-rule="evenodd" d="M219.968 636.487C218.112 637.029 215.447 635.763 213.534 633.279C211.293 630.368 210.932 626.887 212.728 625.504C214.524 624.121 217.797 625.36 220.038 628.27C221.958 630.763 222.498 633.673 221.486 635.327L223.918 637.251C225.314 638.677 225.469 639.915 225.214 641.255C224.896 642.929 225.346 644.905 228.168 646.483C230.991 648.06 230.612 649.424 229.638 650.71C228.663 651.997 229.466 652.807 230.606 653.359C231.934 654.003 231.006 654.42 230.589 654.265C229.559 654.165 227.516 653.523 227.585 651.756C227.628 650.617 227.943 650.076 228.155 649.713C228.354 649.371 228.463 649.184 228.17 648.804C227.917 648.476 227.388 648.193 226.771 647.864C225.911 647.405 224.883 646.855 224.199 645.967C223.076 644.509 222.937 642.473 223.351 641.618C223.728 640.839 222.998 638.234 219.968 636.487Z" fill="white" fill-opacity="0.37"/>
</svg>
