<svg width="1512" height="778" viewBox="0 0 1512 778" fill="none" xmlns="http://www.w3.org/2000/svg">
<rect width="1512" height="778" fill="#5447EF"/>
<path fill-rule="evenodd" clip-rule="evenodd" d="M76.155 181.647C82.7127 183.561 92.1245 179.088 98.8823 170.313C106.801 160.03 108.077 147.733 101.732 142.847C95.3876 137.961 83.8247 142.336 75.9058 152.619C69.1247 161.424 67.2148 171.707 70.7901 177.548L62.2007 184.347C57.2695 189.384 56.7203 193.758 57.6201 198.49C58.7449 204.405 57.1559 211.385 47.1841 216.958C37.2123 222.532 38.551 227.349 41.9934 231.893C45.4358 236.438 42.5992 239.302 38.574 241.251C33.8799 243.524 37.1594 245 38.6332 244.452C42.2713 244.098 49.4875 241.83 49.247 235.586C49.092 231.563 47.9801 229.654 47.2314 228.368C46.5277 227.16 46.1449 226.503 47.1796 225.159C48.0717 224.001 49.9423 223.001 52.1208 221.838C55.1575 220.216 58.7923 218.274 61.2084 215.137C65.1744 209.987 65.6659 202.793 64.2042 199.774C62.8703 197.019 65.4499 187.817 76.155 181.647Z" fill="white"/>
<path opacity="0.3" fill-rule="evenodd" clip-rule="evenodd" d="M775.746 628.647C769.189 630.561 759.777 626.088 753.019 617.313C745.1 607.03 743.824 594.733 750.169 589.847C756.514 584.961 768.077 589.336 775.996 599.619C782.777 608.424 784.687 618.707 781.111 624.548L789.701 631.347C794.632 636.384 795.181 640.758 794.281 645.49C793.156 651.405 794.746 658.385 804.717 663.958C814.689 669.532 813.35 674.349 809.908 678.893C806.466 683.438 809.302 686.302 813.327 688.251C818.021 690.524 814.742 692 813.268 691.452C809.63 691.098 802.414 688.83 802.654 682.586C802.809 678.563 803.921 676.654 804.67 675.368C805.374 674.16 805.756 673.503 804.722 672.159C803.83 671.001 801.959 670.001 799.781 668.838C796.744 667.216 793.109 665.274 790.693 662.137C786.727 656.987 786.235 649.793 787.697 646.774C789.031 644.019 786.451 634.817 775.746 628.647Z" fill="white"/>
<path opacity="0.8" fill-rule="evenodd" clip-rule="evenodd" d="M1390.75 132.647C1384.19 134.561 1374.78 130.088 1368.02 121.313C1360.1 111.03 1358.82 98.7331 1365.17 93.847C1371.51 88.961 1383.08 93.336 1391 103.619C1397.78 112.424 1399.69 122.707 1396.11 128.548L1404.7 135.347C1409.63 140.384 1410.18 144.758 1409.28 149.49C1408.16 155.405 1409.75 162.385 1419.72 167.958C1429.69 173.532 1428.35 178.349 1424.91 182.893C1421.47 187.438 1424.3 190.302 1428.33 192.251C1433.02 194.524 1429.74 196 1428.27 195.452C1424.63 195.098 1417.41 192.83 1417.65 186.586C1417.81 182.563 1418.92 180.654 1419.67 179.368C1420.37 178.16 1420.76 177.503 1419.72 176.159C1418.83 175.001 1416.96 174.001 1414.78 172.838C1411.74 171.216 1408.11 169.274 1405.69 166.137C1401.73 160.987 1401.24 153.793 1402.7 150.774C1404.03 148.019 1401.45 138.817 1390.75 132.647Z" fill="white"/>
<path opacity="0.7" fill-rule="evenodd" clip-rule="evenodd" d="M153.746 711.647C147.189 713.561 137.777 709.088 131.019 700.313C123.1 690.03 121.824 677.733 128.169 672.847C134.514 667.961 146.077 672.336 153.996 682.619C160.777 691.424 162.687 701.707 159.111 707.548L167.701 714.347C172.632 719.384 173.181 723.758 172.281 728.49C171.156 734.405 172.746 741.385 182.717 746.958C192.689 752.532 191.35 757.349 187.908 761.893C184.466 766.438 187.302 769.302 191.327 771.251C196.021 773.524 192.742 775 191.268 774.452C187.63 774.098 180.414 771.83 180.654 765.586C180.809 761.563 181.921 759.654 182.67 758.368C183.374 757.16 183.756 756.503 182.722 755.159C181.83 754.001 179.959 753.001 177.781 751.838C174.744 750.216 171.109 748.274 168.693 745.137C164.727 739.987 164.235 732.793 165.697 729.774C167.031 727.019 164.451 717.817 153.746 711.647Z" fill="white"/>
<path opacity="0.4" fill-rule="evenodd" clip-rule="evenodd" d="M1435.15 711.647C1441.71 713.561 1451.12 709.088 1457.88 700.313C1465.8 690.03 1467.08 677.733 1460.73 672.847C1454.39 667.961 1442.82 672.336 1434.91 682.619C1428.12 691.424 1426.21 701.707 1429.79 707.548L1421.2 714.347C1416.27 719.384 1415.72 723.758 1416.62 728.49C1417.74 734.405 1416.16 741.385 1406.18 746.958C1396.21 752.532 1397.55 757.349 1400.99 761.893C1404.44 766.438 1401.6 769.302 1397.57 771.251C1392.88 773.524 1396.16 775 1397.63 774.452C1401.27 774.098 1408.49 771.83 1408.25 765.586C1408.09 761.563 1406.98 759.654 1406.23 758.368C1405.53 757.16 1405.14 756.503 1406.18 755.159C1407.07 754.001 1408.94 753.001 1411.12 751.838C1414.16 750.216 1417.79 748.274 1420.21 745.137C1424.17 739.987 1424.67 732.793 1423.2 729.774C1421.87 727.019 1424.45 717.817 1435.15 711.647Z" fill="white"/>
</svg>
