<svg width="218" height="334" viewBox="0 0 218 334" fill="none" xmlns="http://www.w3.org/2000/svg">
<g clip-path="url(#clip0_0_2291)">
<path d="M22.503 302.983L17.7905 283.919V288.203L18.6473 293.13L17.7905 295.915L14.1491 292.702L10.0792 285.419L3.01052 269.139L1.93951 256.502L3.01052 239.151L4.72414 212.162L1.93951 205.95L0.654297 196.096L4.72414 191.17H11.1502V189.456L15.6485 173.819L23.7882 156.041L18.2189 151.114L11.1502 139.333L7.50878 124.981L9.6508 113.843L16.7195 91.1372L25.716 76.7857L33.8557 65.2187L45.4226 49.7962L62.9872 36.944L78.1956 30.0895V27.3049L76.9104 23.4493V19.8078L73.0547 10.3829C73.6259 8.8121 74.854 5.41342 75.1968 4.38525C75.5395 3.35708 79.338 1.67202 81.1944 0.958008L91.262 2.45742L99.1874 7.81249V22.3783V28.5901L105.614 30.0895L119.108 36.944L133.031 48.7252L145.884 63.9335L162.377 97.9917L168.589 124.981V133.764L166.661 147.472L154.023 157.754C154.38 159.039 155.18 162.21 155.523 164.609C155.865 167.008 160.235 187.171 162.377 196.953L168.589 198.238L175.872 200.595L183.797 202.737L199.006 210.662L206.931 219.873L212.715 228.869L217.641 239.794V258.001L215.714 271.067L208.217 286.918L201.576 292.702L191.937 302.983L175.872 309.195L157.665 311.123L138.387 305.34L133.46 304.269L125.749 312.623L111.183 323.761L90.4051 331.901L73.2689 333.614L53.9907 330.83L33.4273 318.834L22.503 302.983Z" fill="#FFD6D6"/>
</g>
<g clip-path="url(#clip1_0_2291)">
<path d="M22.503 302.983L17.7905 283.919V288.203L18.6473 293.129L17.7905 295.914L14.1491 292.701L10.0792 285.418L3.01052 269.139L1.93951 256.501L3.01052 239.15L4.72414 212.161L1.93951 205.949L0.654297 196.096L4.72414 191.169H11.1502V189.455L15.6485 173.818L23.7882 156.04L18.2189 151.113L11.1502 139.332L7.50878 124.98L9.6508 113.842L16.7195 91.1363L25.716 76.7847L33.8557 65.2178L45.4226 49.7952L62.9872 36.9431L78.1956 30.0886V27.3039L76.9104 23.4483V19.8069L73.0547 10.3819C73.6259 8.81112 74.854 5.41244 75.1968 4.38427C75.5395 3.3561 79.338 1.67104 81.1944 0.957031L91.262 2.45645L99.1874 7.81151V22.3773V28.5892L105.614 30.0886L119.108 36.9431L133.031 48.7242L145.884 63.9326L162.377 97.9908L168.589 124.98V133.763L166.661 147.472L154.023 157.753C154.38 159.038 155.18 162.209 155.523 164.608C155.865 167.007 160.235 187.17 162.377 196.952L168.589 198.238L175.872 200.594L183.797 202.736L199.006 210.661L206.931 219.872L212.715 228.868L217.641 239.793V258L215.714 271.066L208.217 286.917L201.576 292.701L191.937 302.983L175.872 309.194L157.665 311.122L138.387 305.339L133.46 304.268L125.749 312.622L111.183 323.76L90.4051 331.9L73.2689 333.613L53.9907 330.829L33.4273 318.834L22.503 302.983Z" fill="url(#paint0_linear_0_2291)"/>
</g>
<defs>
<linearGradient id="paint0_linear_0_2291" x1="56.1327" y1="-71.2292" x2="197.078" y2="296.771" gradientUnits="userSpaceOnUse">
<stop stop-color="#FFD6D6"/>
<stop offset="0.145833" stop-color="#B3FF9F"/>
<stop offset="0.28125" stop-color="#87B9E8"/>
<stop offset="0.359375" stop-color="#FFC1F1"/>
<stop offset="0.567708" stop-color="#7AEAEA"/>
<stop offset="0.651042" stop-color="#DCFFD3"/>
<stop offset="0.770833" stop-color="#FFE1E1"/>
<stop offset="0.880334" stop-color="#DCC0FF"/>
<stop offset="1" stop-color="#FFA3F0"/>
</linearGradient>
<clipPath id="clip0_0_2291">
<rect width="217.146" height="332.698" fill="white" transform="translate(0.639648 0.865723)"/>
</clipPath>
<clipPath id="clip1_0_2291">
<rect width="217" height="333" fill="white" transform="translate(1 1)"/>
</clipPath>
</defs>
</svg>
