<?xml version="1.0" standalone="no"?>
<!DOCTYPE svg PUBLIC "-//W3C//DTD SVG 20010904//EN"
 "http://www.w3.org/TR/2001/REC-SVG-20010904/DTD/svg10.dtd">
<svg version="1.0" xmlns="http://www.w3.org/2000/svg"
 width="603.000000pt" height="910.000000pt" viewBox="0 0 603.000000 910.000000"
 preserveAspectRatio="xMidYMid meet">
<metadata>
Created by potrace 1.16, written by Peter Selinger 2001-2019
</metadata>
<g transform="translate(0.000000,910.000000) scale(0.100000,-0.100000)"
fill="#000000" stroke="none">
<path d="M2310 9090 c0 -5 -25 -10 -55 -10 -40 0 -57 -4 -61 -15 -4 -8 -15
-15 -26 -15 -26 0 -158 -132 -158 -158 0 -11 -7 -22 -15 -26 -12 -4 -15 -26
-15 -105 0 -79 3 -100 15 -105 10 -3 15 -19 15 -45 0 -25 5 -41 15 -45 10 -3
15 -19 15 -45 0 -25 5 -41 15 -45 8 -3 15 -17 15 -31 0 -16 6 -25 15 -25 12 0
15 -13 15 -60 l0 -60 -40 0 c-27 0 -43 -5 -46 -15 -4 -8 -17 -15 -30 -15 -14
0 -27 -7 -30 -15 -4 -8 -17 -15 -30 -15 -14 0 -27 -7 -30 -15 -4 -8 -17 -15
-30 -15 -14 0 -27 -7 -30 -15 -4 -8 -16 -15 -28 -15 -12 0 -33 -13 -46 -30
-14 -16 -34 -30 -45 -30 -11 0 -31 -14 -45 -30 -13 -17 -32 -30 -42 -30 -10 0
-38 -20 -61 -45 -24 -25 -51 -45 -60 -45 -17 0 -117 -94 -117 -110 0 -6 -7
-10 -15 -10 -8 0 -15 -7 -15 -15 0 -10 -10 -15 -30 -15 -20 0 -30 -5 -30 -15
0 -8 -7 -15 -15 -15 -8 0 -15 -7 -15 -15 0 -8 -4 -15 -10 -15 -13 0 -50 -37
-50 -50 0 -5 -7 -10 -15 -10 -8 0 -15 -7 -15 -15 0 -8 -7 -15 -15 -15 -10 0
-15 -10 -15 -30 0 -20 -5 -30 -15 -30 -8 0 -15 -7 -15 -15 0 -8 -7 -15 -15
-15 -8 0 -15 -7 -15 -15 0 -8 -7 -15 -15 -15 -8 0 -15 -7 -15 -15 0 -8 -7 -15
-15 -15 -8 0 -15 -7 -15 -15 0 -8 -7 -15 -15 -15 -8 0 -15 -7 -15 -15 0 -8 -7
-15 -15 -15 -10 0 -15 -10 -15 -30 0 -20 -5 -30 -15 -30 -8 0 -15 -7 -15 -15
0 -8 -7 -15 -15 -15 -8 0 -15 -7 -15 -15 0 -8 -7 -15 -15 -15 -10 0 -15 -10
-15 -30 0 -20 -5 -30 -15 -30 -8 0 -15 -7 -15 -15 0 -8 -7 -15 -15 -15 -8 0
-15 -7 -15 -15 0 -8 -7 -15 -15 -15 -10 0 -15 -10 -15 -30 0 -20 -5 -30 -15
-30 -8 0 -15 -7 -15 -15 0 -8 -7 -15 -15 -15 -10 0 -15 -10 -15 -30 0 -20 -5
-30 -15 -30 -8 0 -15 -7 -15 -15 0 -8 -7 -15 -15 -15 -10 0 -15 -10 -15 -30 0
-20 -5 -30 -15 -30 -10 0 -15 -10 -15 -30 0 -20 -5 -30 -15 -30 -10 0 -15 -10
-15 -30 0 -20 -5 -30 -15 -30 -8 0 -15 -7 -15 -15 0 -8 -7 -15 -15 -15 -10 0
-15 -10 -15 -30 0 -20 -5 -30 -15 -30 -10 0 -15 -10 -15 -30 0 -20 -5 -30 -15
-30 -9 0 -15 -9 -15 -25 0 -14 -7 -28 -15 -31 -8 -4 -15 -17 -15 -30 0 -14 -7
-27 -15 -30 -10 -4 -15 -20 -15 -45 0 -26 -5 -42 -15 -45 -8 -4 -15 -17 -15
-30 0 -14 -7 -27 -15 -30 -10 -4 -15 -20 -15 -45 0 -26 -5 -42 -15 -45 -8 -4
-15 -17 -15 -30 0 -14 -7 -27 -15 -30 -11 -5 -15 -21 -15 -60 0 -39 -4 -56
-15 -60 -11 -5 -15 -21 -15 -60 0 -39 -4 -56 -15 -60 -12 -5 -15 -25 -15 -89
0 -64 -3 -84 -15 -89 -22 -8 -22 -336 0 -336 12 0 15 -17 15 -90 0 -73 3 -90
15 -90 11 0 15 -12 15 -45 0 -33 4 -45 15 -45 10 0 15 -10 15 -30 0 -20 5 -30
15 -30 10 0 15 -10 15 -30 0 -20 5 -30 15 -30 10 0 15 -10 15 -30 0 -20 5 -30
15 -30 8 0 15 -7 15 -15 0 -8 7 -15 15 -15 10 0 15 -10 15 -30 0 -20 5 -30 15
-30 8 0 15 -7 15 -15 0 -8 7 -15 15 -15 8 0 15 -7 15 -15 0 -8 7 -15 15 -15 8
0 15 -7 15 -15 0 -8 7 -15 15 -15 8 0 15 -7 15 -15 0 -8 7 -15 15 -15 8 0 15
-7 15 -15 0 -8 7 -15 15 -15 20 0 20 -46 0 -54 -8 -3 -15 -16 -15 -30 0 -13
-7 -26 -15 -30 -8 -3 -15 -16 -15 -30 0 -13 -7 -26 -15 -30 -8 -3 -15 -16 -15
-30 0 -13 -7 -26 -15 -30 -10 -3 -15 -19 -15 -45 0 -25 -5 -41 -15 -45 -8 -3
-15 -16 -15 -30 0 -13 -7 -26 -15 -30 -10 -3 -15 -19 -15 -45 0 -25 -5 -41
-15 -45 -8 -3 -15 -16 -15 -30 0 -13 -7 -26 -15 -30 -10 -3 -15 -19 -15 -45 0
-25 -5 -41 -15 -45 -10 -3 -15 -19 -15 -45 0 -25 -5 -41 -15 -45 -11 -4 -15
-20 -15 -56 0 -67 -22 -90 -88 -90 -40 0 -52 -5 -73 -29 -14 -16 -36 -31 -50
-33 -17 -2 -25 -10 -27 -28 -2 -14 -10 -29 -18 -33 -8 -4 -14 -19 -14 -31 0
-13 -7 -26 -15 -30 -22 -8 -22 -306 0 -306 10 0 15 -10 15 -30 0 -20 5 -30 15
-30 10 0 15 -10 15 -30 0 -20 5 -30 15 -30 10 0 15 -10 15 -30 0 -20 5 -30 15
-30 22 0 22 -135 0 -144 -12 -4 -15 -24 -15 -90 0 -65 -3 -85 -15 -90 -12 -4
-15 -32 -15 -165 0 -132 -3 -160 -15 -165 -23 -8 -23 -516 0 -516 13 0 15 -22
15 -135 0 -113 2 -135 15 -135 12 0 15 -15 15 -75 0 -60 3 -75 15 -75 12 0 15
-13 15 -60 0 -47 3 -60 15 -60 11 0 15 -12 15 -45 0 -33 4 -45 15 -45 10 0 15
-10 15 -30 0 -20 5 -30 15 -30 11 0 15 -12 15 -45 0 -33 4 -45 15 -45 10 0 15
-10 15 -30 0 -20 5 -30 15 -30 10 0 15 -10 15 -30 0 -20 5 -30 15 -30 10 0 15
-10 15 -30 0 -20 5 -30 15 -30 8 0 15 -7 15 -15 0 -8 7 -15 15 -15 10 0 15
-10 15 -30 0 -20 5 -30 15 -30 8 0 15 -7 15 -15 0 -8 7 -15 15 -15 8 0 15 -7
15 -15 0 -8 7 -15 15 -15 8 0 15 -7 15 -15 0 -8 7 -15 15 -15 8 0 15 -7 15
-15 0 -8 7 -15 15 -15 8 0 15 -7 15 -15 0 -8 7 -15 15 -15 8 0 15 -7 15 -15 0
-8 7 -15 15 -15 10 0 15 -10 15 -30 0 -20 5 -30 15 -30 10 0 15 -10 15 -30 0
-20 5 -30 15 -30 10 0 15 -10 15 -30 0 -20 5 -30 15 -30 10 0 15 -10 15 -30 0
-20 5 -30 15 -30 8 0 15 -7 15 -15 0 -8 7 -15 15 -15 10 0 15 -10 15 -30 0
-20 5 -30 15 -30 8 0 15 -7 15 -15 0 -8 7 -15 15 -15 8 0 15 -7 15 -15 0 -8 7
-15 15 -15 8 0 15 -7 15 -15 0 -8 7 -15 15 -15 8 0 15 -7 15 -15 0 -8 7 -15
15 -15 8 0 15 -7 15 -15 0 -8 7 -15 15 -15 8 0 15 -7 15 -15 0 -8 7 -15 15
-15 8 0 15 -7 15 -15 0 -8 7 -15 15 -15 8 0 15 -7 15 -15 0 -8 7 -15 15 -15 8
0 15 -7 15 -15 0 -8 7 -15 15 -15 8 0 15 -7 15 -15 0 -10 10 -15 30 -15 20 0
30 -5 30 -15 0 -8 7 -15 15 -15 8 0 15 -7 15 -15 0 -10 10 -15 30 -15 20 0 30
-5 30 -15 0 -10 10 -15 30 -15 20 0 30 -5 30 -15 0 -10 10 -15 30 -15 20 0 30
-5 30 -15 0 -10 10 -15 30 -15 20 0 30 -5 30 -15 0 -11 11 -15 40 -15 27 0 43
-5 46 -15 4 -10 20 -15 45 -15 26 0 42 -5 45 -15 4 -10 20 -15 45 -15 26 0 42
-5 45 -15 5 -12 25 -15 90 -15 49 0 84 -4 84 -10 0 -6 103 -10 290 -10 187 0
290 4 290 10 0 6 32 10 75 10 60 0 75 3 75 15 0 12 13 15 60 15 47 0 60 3 60
15 0 11 12 15 45 15 33 0 45 4 45 15 0 11 12 15 45 15 33 0 45 4 45 15 0 10
10 15 30 15 20 0 30 5 30 15 0 10 10 15 30 15 20 0 30 5 30 15 0 10 10 15 30
15 20 0 30 5 30 15 0 10 10 15 30 15 20 0 30 5 30 15 0 10 10 15 30 15 20 0
30 5 30 15 0 10 10 15 30 15 20 0 30 5 30 15 0 8 7 15 15 15 8 0 15 7 15 15 0
10 10 15 30 15 20 0 30 5 30 15 0 8 7 15 15 15 8 0 15 7 15 15 0 8 7 15 15 15
8 0 15 7 15 15 0 10 10 15 30 15 20 0 30 5 30 15 0 8 7 15 15 15 8 0 15 7 15
15 0 8 7 15 15 15 8 0 15 7 15 15 0 8 7 15 15 15 8 0 15 7 15 15 0 8 7 15 15
15 8 0 15 7 15 15 0 8 7 15 15 15 8 0 15 7 15 15 0 8 7 15 15 15 8 0 15 7 15
15 0 8 7 15 15 15 8 0 15 7 15 15 0 8 7 15 15 15 8 0 15 7 15 15 0 8 7 15 15
15 8 0 15 7 15 15 0 8 7 15 15 15 8 0 15 7 15 15 0 8 4 15 9 15 5 0 11 -7 15
-15 3 -8 16 -15 30 -15 13 0 26 -7 30 -15 3 -10 19 -15 45 -15 25 0 41 -5 45
-15 3 -8 16 -15 30 -15 13 0 26 -7 30 -15 4 -11 21 -15 60 -15 39 0 55 -4 60
-15 4 -11 21 -15 60 -15 39 0 55 -4 60 -15 8 -23 504 -23 512 0 5 11 21 15 60
15 39 0 56 4 60 15 5 11 21 15 60 15 39 0 56 4 60 15 4 8 17 15 30 15 14 0 27
7 30 15 4 10 20 15 45 15 26 0 42 5 45 15 4 8 17 15 30 15 14 0 27 7 30 15 4
8 16 15 28 15 12 0 33 13 46 30 14 16 34 29 45 30 12 0 32 13 45 30 14 16 33
29 43 30 24 0 367 343 367 367 1 10 14 29 30 43 17 13 30 34 30 46 0 12 7 24
15 28 8 3 15 16 15 30 0 13 7 26 15 30 8 3 15 16 15 30 0 13 7 26 15 30 8 3
15 16 15 30 0 13 7 26 15 30 8 3 15 16 15 30 0 13 7 26 15 30 10 3 15 19 15
45 0 25 5 41 15 45 10 3 15 19 15 45 0 25 5 41 15 45 11 4 15 22 15 75 0 52 4
70 15 75 23 8 23 564 0 572 -11 5 -15 23 -15 75 0 53 -4 71 -15 75 -10 4 -15
20 -15 45 0 26 -5 42 -15 45 -10 4 -15 20 -15 45 0 26 -5 42 -15 45 -8 4 -15
17 -15 30 0 14 -7 27 -15 30 -8 4 -15 17 -15 30 0 14 -7 27 -15 30 -8 4 -15
16 -15 28 0 12 -13 33 -30 46 -16 14 -29 34 -30 44 0 11 -20 39 -45 63 -25 23
-45 50 -45 59 0 22 -194 214 -217 214 -10 1 -29 14 -43 30 -13 17 -33 30 -45
30 -11 1 -31 14 -45 30 -13 17 -34 30 -46 30 -12 0 -24 7 -28 15 -3 8 -16 15
-30 15 -13 0 -26 7 -30 15 -3 8 -16 15 -30 15 -13 0 -26 7 -30 15 -3 10 -19
15 -45 15 -25 0 -41 5 -45 15 -3 10 -19 15 -45 15 -25 0 -41 5 -45 15 -4 11
-22 15 -73 15 -63 1 -70 3 -93 30 -19 23 -32 30 -61 30 -24 0 -39 5 -43 15 -4
12 -24 15 -91 15 l-85 0 0 85 c0 67 -3 87 -15 91 -11 5 -15 23 -15 75 0 53 -4
71 -15 75 -11 5 -15 21 -15 60 0 39 -4 56 -15 60 -11 5 -15 21 -15 60 0 39 -4
56 -15 60 -11 5 -15 21 -15 60 0 39 -4 56 -15 60 -11 5 -15 21 -15 60 0 39 -4
56 -15 60 -10 4 -15 20 -15 45 0 26 -5 42 -15 45 -10 4 -15 20 -15 45 0 37 2
39 30 39 20 0 30 5 30 15 0 10 10 15 30 15 20 0 30 5 30 15 0 8 7 15 15 15 8
0 15 7 15 15 0 8 7 15 15 15 8 0 15 7 15 15 0 8 7 15 15 15 8 0 15 7 15 15 0
8 7 15 15 15 8 0 15 7 15 15 0 8 7 15 15 15 8 0 15 7 15 15 0 8 7 15 15 15 10
0 15 10 15 30 0 20 5 30 15 30 10 0 15 10 15 30 0 20 5 30 15 30 11 0 15 12
15 45 0 33 4 45 15 45 13 0 15 40 15 299 0 256 -2 300 -15 305 -11 4 -15 22
-15 75 0 52 -4 70 -15 75 -11 4 -15 21 -15 60 0 39 -4 55 -15 60 -10 3 -15 19
-15 45 0 25 -5 41 -15 45 -11 4 -15 21 -15 60 0 39 -4 55 -15 60 -10 3 -15 19
-15 45 0 25 -5 41 -15 45 -10 3 -15 19 -15 45 0 25 -5 41 -15 45 -8 3 -15 16
-15 30 0 13 -7 26 -15 30 -10 3 -15 19 -15 45 0 25 -5 41 -15 45 -8 3 -15 16
-15 30 0 13 -7 26 -15 30 -10 3 -15 19 -15 46 0 29 -4 40 -15 40 -10 0 -15 10
-15 30 0 20 -5 30 -15 30 -10 0 -15 10 -15 30 0 20 -5 30 -15 30 -10 0 -15 10
-15 30 0 17 5 30 10 30 6 0 10 -7 10 -15 0 -8 7 -15 15 -15 8 0 15 -7 15 -15
0 -8 7 -15 15 -15 8 0 15 -7 15 -15 0 -8 7 -15 15 -15 8 0 15 -7 15 -15 0 -12
16 -15 80 -15 64 0 80 3 80 15 0 8 7 15 15 15 8 0 15 7 15 15 0 10 10 15 30
15 20 0 30 5 30 15 0 10 10 15 30 15 20 0 30 5 30 15 0 8 7 15 15 15 8 0 15 7
15 15 0 10 10 15 30 15 20 0 30 5 30 15 0 8 7 15 15 15 8 0 15 7 15 15 0 8 7
15 15 15 8 0 15 7 15 15 0 8 7 15 15 15 8 0 15 7 15 15 0 8 7 15 15 15 8 0 15
7 15 15 0 8 7 15 15 15 10 0 15 10 15 30 0 20 5 30 15 30 11 0 15 12 15 45 0
33 4 45 15 45 11 0 15 12 15 45 0 33 -4 45 -15 45 -11 0 -15 12 -15 45 0 33
-4 45 -15 45 -8 0 -15 7 -15 15 0 8 -7 15 -15 15 -8 0 -15 7 -15 15 0 10 -10
15 -30 15 -20 0 -30 5 -30 15 0 12 -16 15 -80 15 -64 0 -80 -3 -80 -15 0 -11
-11 -15 -40 -15 -29 0 -40 4 -40 15 0 8 -7 15 -15 15 -8 0 -15 7 -15 15 0 8
-7 15 -15 15 -8 0 -15 7 -15 15 0 8 -7 15 -15 15 -8 0 -15 7 -15 15 0 13 -21
15 -125 15 -104 0 -125 -2 -125 -15 0 -10 -10 -15 -30 -15 -20 0 -30 -5 -30
-15 0 -8 -7 -15 -15 -15 -10 0 -15 -10 -15 -30 0 -20 -5 -30 -15 -30 -8 0 -15
-7 -15 -15 0 -8 -7 -15 -15 -15 -13 0 -15 -22 -15 -135 0 -83 -4 -135 -10
-135 -5 0 -10 14 -10 30 0 20 -5 30 -15 30 -10 0 -15 10 -15 30 0 20 -5 30
-15 30 -8 0 -15 7 -15 15 0 8 -7 15 -15 15 -10 0 -15 10 -15 30 0 20 -5 30
-15 30 -8 0 -15 7 -15 15 0 8 -7 15 -15 15 -10 0 -15 10 -15 30 0 20 -5 30
-15 30 -8 0 -15 7 -15 15 0 8 -7 15 -15 15 -10 0 -15 10 -15 30 0 20 -5 30
-15 30 -8 0 -15 7 -15 15 0 8 -7 15 -15 15 -8 0 -15 7 -15 15 0 8 -7 15 -15
15 -8 0 -15 7 -15 15 0 8 -7 15 -15 15 -8 0 -15 7 -15 15 0 8 -7 15 -15 15
-10 0 -15 10 -15 30 0 20 -5 30 -15 30 -8 0 -15 7 -15 15 0 8 -7 15 -15 15 -8
0 -15 7 -15 15 0 8 -7 15 -15 15 -8 0 -15 7 -15 15 0 8 -7 15 -15 15 -8 0 -15
7 -15 15 0 8 -7 15 -15 15 -8 0 -15 7 -15 15 0 8 -7 15 -15 15 -8 0 -15 7 -15
15 0 10 -10 15 -30 15 -20 0 -30 5 -30 15 0 8 -7 15 -15 15 -8 0 -15 7 -15 15
0 8 -7 15 -15 15 -8 0 -15 7 -15 15 0 10 -10 15 -30 15 -20 0 -30 5 -30 15 0
8 -7 15 -15 15 -8 0 -15 7 -15 15 0 10 -10 15 -30 15 -20 0 -30 5 -30 15 0 8
-7 15 -15 15 -8 0 -15 7 -15 15 0 10 -10 15 -30 15 -20 0 -30 5 -30 15 0 10
-10 15 -30 15 -20 0 -30 5 -30 15 0 10 -10 15 -30 15 -20 0 -30 5 -30 15 0 10
-10 15 -30 15 -20 0 -30 5 -30 15 0 11 -12 15 -45 15 -33 0 -45 4 -45 15 0 11
-12 15 -45 15 -33 0 -45 4 -45 15 0 10 -10 15 -30 15 l-30 0 0 60 c0 47 3 60
15 60 13 0 15 22 15 135 0 113 -2 135 -15 135 -12 0 -15 13 -15 60 0 47 -3 60
-15 60 -10 0 -15 10 -15 30 0 20 -5 30 -15 30 -8 0 -15 7 -15 15 0 8 -7 15
-15 15 -8 0 -15 7 -15 15 0 8 -7 15 -15 15 -8 0 -15 7 -15 15 0 8 -7 15 -15
15 -8 0 -15 7 -15 15 0 8 -7 15 -15 15 -8 0 -15 7 -15 15 0 10 -10 15 -30 15
-20 0 -30 5 -30 15 0 12 -15 15 -75 15 -43 0 -75 4 -75 10 0 6 -22 10 -50 10
-27 0 -50 -4 -50 -10z m84 -135 c4 -11 21 -15 60 -15 39 0 55 -4 60 -15 3 -8
14 -15 25 -15 26 0 91 -65 91 -91 0 -11 7 -22 15 -25 10 -4 15 -20 15 -45 0
-26 5 -42 15 -45 12 -5 15 -28 15 -119 0 -88 -3 -115 -15 -125 -12 -10 -15
-45 -15 -197 0 -154 2 -185 15 -189 8 -4 15 -17 15 -30 0 -14 7 -27 15 -30 8
-4 15 -15 15 -26 0 -11 10 -31 23 -44 30 -32 76 -32 107 1 22 23 22 26 7 43
-10 10 -17 26 -17 34 0 9 -7 21 -15 28 -8 7 -15 20 -15 30 0 10 -7 23 -16 30
-9 8 -14 25 -12 44 2 24 8 32 27 34 15 2 28 -3 33 -12 6 -10 23 -16 47 -16 25
0 41 -5 45 -15 3 -8 16 -15 30 -15 13 0 26 -7 30 -15 3 -8 16 -15 30 -15 13 0
26 -7 30 -15 3 -8 16 -15 30 -15 13 0 26 -7 30 -15 3 -8 16 -15 30 -15 13 0
26 -7 30 -15 3 -8 16 -15 28 -15 13 -1 34 -14 48 -30 13 -17 33 -30 45 -30 11
-1 31 -14 45 -30 13 -17 31 -30 40 -30 21 0 354 -334 358 -359 2 -10 23 -37
47 -61 25 -25 45 -51 45 -60 0 -9 14 -29 30 -45 17 -16 30 -36 30 -45 0 -9 14
-29 30 -45 17 -16 30 -36 30 -45 0 -9 14 -29 30 -45 17 -16 30 -36 30 -46 0
-9 7 -22 15 -29 8 -7 15 -20 15 -30 0 -10 7 -23 15 -30 8 -7 15 -20 15 -30 0
-10 7 -23 15 -30 8 -7 15 -20 15 -30 0 -10 7 -23 15 -30 8 -7 15 -20 15 -30 0
-10 7 -23 15 -30 8 -7 15 -20 15 -30 0 -10 7 -23 15 -30 8 -7 15 -20 15 -30 0
-10 7 -23 15 -30 8 -7 15 -20 15 -30 0 -10 7 -23 15 -30 8 -7 15 -20 15 -30 0
-10 7 -23 15 -30 8 -7 15 -27 15 -45 0 -18 7 -38 15 -45 8 -7 15 -20 15 -30 0
-10 7 -23 15 -30 8 -7 15 -27 15 -45 0 -18 7 -38 15 -45 8 -7 15 -27 15 -45 0
-18 7 -38 15 -45 8 -7 15 -27 15 -45 0 -18 7 -38 15 -45 8 -7 15 -27 15 -45 0
-18 7 -38 15 -45 9 -8 15 -30 15 -60 0 -30 6 -52 15 -60 9 -8 15 -30 15 -60 0
-30 6 -52 15 -60 9 -8 15 -30 15 -60 0 -30 6 -52 15 -60 13 -10 15 -54 15
-280 0 -226 -2 -270 -15 -280 -8 -7 -15 -20 -15 -30 0 -10 -7 -23 -15 -30 -8
-7 -15 -20 -15 -30 0 -10 -7 -23 -15 -30 -8 -7 -15 -20 -15 -28 0 -22 -100
-122 -121 -122 -9 0 -22 -7 -29 -15 -7 -8 -27 -15 -45 -15 -18 0 -38 -7 -45
-15 -7 -8 -19 -15 -28 -15 -9 0 -26 -10 -39 -22 -27 -26 -33 -95 -8 -104 10
-4 15 -20 15 -45 0 -26 5 -42 15 -45 11 -5 15 -21 15 -60 0 -39 4 -56 15 -60
10 -4 15 -20 15 -45 0 -26 5 -42 15 -45 11 -5 15 -21 15 -60 0 -39 4 -56 15
-60 11 -5 15 -21 15 -60 0 -39 4 -56 15 -60 11 -5 15 -23 15 -75 0 -53 4 -71
15 -75 11 -5 15 -21 15 -60 0 -39 4 -56 15 -60 12 -5 15 -25 15 -90 0 -66 3
-86 15 -90 12 -5 15 -29 15 -130 l0 -123 35 -36 c20 -19 38 -35 40 -35 3 0 14
9 25 20 17 17 20 33 20 99 0 89 1 91 80 91 45 0 52 -4 104 -55 l56 -55 0 -118
0 -117 -82 -82 c-46 -46 -90 -83 -99 -83 -9 0 -22 -7 -29 -15 -7 -8 -20 -15
-30 -15 -10 0 -23 -7 -30 -15 -7 -8 -20 -15 -30 -15 -10 0 -23 -7 -30 -15 -7
-8 -20 -15 -30 -15 -10 0 -23 -7 -30 -15 -7 -8 -27 -15 -45 -15 -18 0 -38 -7
-45 -15 -7 -8 -27 -15 -45 -15 -18 0 -38 -7 -45 -15 -8 -9 -30 -15 -60 -15
-30 0 -52 -6 -60 -15 -8 -9 -30 -15 -60 -15 -30 0 -52 -6 -60 -15 -8 -9 -30
-15 -60 -15 -30 0 -52 -6 -60 -15 -9 -10 -32 -15 -75 -15 -43 0 -66 -5 -75
-15 -9 -11 -35 -15 -105 -15 -70 0 -96 -4 -105 -15 -10 -12 -37 -15 -120 -15
-83 0 -110 -3 -120 -15 -10 -12 -43 -15 -180 -15 -137 0 -170 -3 -180 -15 -19
-23 -798 -23 -806 0 -5 12 -30 15 -134 15 -104 0 -129 3 -134 15 -4 12 -24 15
-90 15 -65 0 -85 3 -90 15 -4 11 -22 15 -75 15 -52 0 -70 4 -75 15 -4 11 -22
15 -75 15 -52 0 -70 4 -75 15 -3 10 -19 15 -45 15 -25 0 -41 5 -45 15 -4 11
-21 15 -60 15 -39 0 -55 4 -60 15 -3 10 -19 15 -45 15 -25 0 -41 5 -45 15 -3
10 -19 15 -45 15 -25 0 -41 5 -45 15 -3 10 -19 15 -45 15 -25 0 -41 5 -45 15
-3 8 -16 15 -30 15 -13 0 -26 7 -30 15 -3 10 -19 15 -45 15 -25 0 -41 5 -45
15 -3 8 -16 15 -30 15 -13 0 -26 7 -30 15 -3 8 -16 15 -28 15 -13 1 -34 14
-48 30 -13 17 -34 30 -46 30 -12 0 -24 7 -28 15 -3 8 -14 15 -25 15 -26 0
-241 215 -241 241 0 11 -7 22 -15 25 -8 4 -15 17 -15 30 0 14 -7 27 -15 30
-12 5 -15 28 -15 117 l0 110 35 34 c29 29 41 34 73 31 30 -2 38 -7 40 -26 3
-19 10 -22 44 -22 58 0 77 27 78 108 0 46 4 64 15 68 11 5 15 21 15 60 0 39 4
56 15 60 10 4 15 20 15 45 0 26 5 42 15 45 10 4 15 20 15 45 0 26 5 42 15 45
10 4 15 20 15 45 0 26 5 42 15 45 8 4 15 17 15 30 0 14 7 27 15 30 10 4 15 20
15 44 0 21 7 43 15 50 8 7 15 20 15 30 0 10 7 23 15 30 8 7 15 21 15 32 0 10
7 21 15 24 8 4 15 17 15 30 0 14 7 27 15 30 8 4 15 17 15 30 0 19 5 24 24 24
13 0 29 -7 36 -15 7 -8 20 -15 30 -15 10 0 23 -7 30 -15 7 -8 20 -15 30 -15
10 0 23 -7 30 -15 7 -8 20 -15 30 -15 10 0 23 -7 30 -15 7 -8 20 -15 30 -15
10 0 23 -7 30 -15 7 -8 27 -15 45 -15 18 0 38 -7 45 -15 7 -8 27 -15 45 -15
18 0 38 -7 45 -15 8 -9 30 -15 60 -15 30 0 52 -6 60 -15 9 -11 33 -15 90 -15
57 0 81 -4 90 -15 10 -12 36 -15 113 -15 96 0 102 1 129 27 27 26 34 55 22 87
-5 13 -27 16 -134 16 -104 0 -129 3 -134 15 -4 11 -22 15 -75 15 -52 0 -70 4
-75 15 -4 11 -22 15 -75 15 -52 0 -70 4 -75 15 -3 10 -19 15 -45 15 -25 0 -41
5 -45 15 -3 8 -16 15 -30 15 -13 0 -26 7 -30 15 -3 10 -19 15 -45 15 -25 0
-41 5 -45 15 -3 8 -16 15 -28 15 -13 1 -34 14 -48 30 -13 17 -32 30 -42 30
-10 0 -38 20 -61 45 -24 25 -51 45 -60 45 -21 0 -117 96 -117 117 0 9 -20 36
-45 60 -25 23 -45 52 -45 63 0 11 -7 23 -15 26 -8 4 -15 17 -15 30 0 14 -7 27
-15 30 -8 4 -15 17 -15 30 0 14 -7 27 -15 30 -10 4 -15 20 -15 45 0 26 -5 42
-15 45 -11 5 -15 21 -15 60 0 39 -4 56 -15 60 -22 9 -22 319 0 328 12 4 15 24
15 90 0 65 3 85 15 90 11 4 15 21 15 60 0 39 4 55 15 60 10 3 15 19 15 45 0
25 5 41 15 45 10 3 15 19 15 45 0 25 5 41 15 45 8 3 15 16 15 30 0 13 7 26 15
30 10 3 15 19 15 45 0 25 5 41 15 45 8 3 15 16 15 30 0 13 7 26 15 30 8 3 15
16 15 30 0 13 7 26 15 30 8 3 15 16 15 30 0 13 7 26 15 30 8 3 15 16 15 30 0
13 7 26 15 30 8 3 15 16 15 30 0 13 7 26 15 30 8 3 15 16 15 28 1 13 14 34 30
48 17 13 30 33 30 45 1 11 14 31 30 45 17 13 30 34 30 46 0 12 7 24 15 28 8 3
15 15 15 26 0 11 20 40 45 63 25 24 45 52 45 63 1 10 14 30 30 44 17 13 30 32
30 42 0 10 27 44 60 76 33 33 60 66 60 75 0 20 367 387 387 387 9 0 42 27 75
60 32 33 66 60 77 60 10 0 28 14 41 30 13 17 32 30 44 30 12 1 32 14 46 30 13
17 34 30 46 30 12 0 24 7 28 15 3 8 16 15 30 15 13 0 26 7 30 15 3 8 16 15 30
15 13 0 26 7 30 15 3 8 16 15 30 15 13 0 26 7 30 15 3 10 19 15 46 15 35 0 40
-3 40 -24 0 -13 -7 -29 -15 -36 -24 -20 -20 -97 8 -126 31 -33 65 -32 73 3 4
15 13 34 21 41 7 7 13 27 13 43 0 17 7 37 15 45 11 11 15 39 15 103 0 67 -4
92 -15 101 -9 8 -15 30 -15 60 0 30 -6 52 -15 60 -8 7 -15 27 -15 45 0 18 -7
38 -15 45 -8 7 -15 20 -15 30 0 10 -7 23 -15 30 -8 7 -15 27 -15 45 0 18 -7
38 -15 45 -17 14 -22 150 -5 150 5 0 13 12 16 27 10 37 34 63 60 63 12 0 24 7
28 15 3 10 19 15 45 15 25 0 41 5 45 15 3 8 16 15 30 15 13 0 26 -7 30 -15z
m2090 -1497 c28 -25 39 -46 49 -87 9 -41 18 -56 39 -67 25 -13 32 -12 65 5 21
11 49 29 62 42 16 15 40 24 73 27 66 6 98 -21 98 -84 0 -58 -28 -108 -97 -175
-53 -52 -144 -119 -161 -119 -4 0 -27 -14 -52 -30 -63 -42 -91 -40 -131 13
-19 23 -36 44 -39 47 -3 3 -19 28 -36 55 -108 181 -107 329 1 388 48 26 87 21
129 -15z m450 -3923 c8 -8 28 -15 45 -15 16 0 36 -7 45 -15 8 -8 28 -15 45
-15 16 0 36 -6 43 -13 7 -8 26 -17 41 -21 15 -3 27 -11 27 -16 0 -6 8 -10 18
-10 10 0 31 -13 47 -30 16 -16 36 -30 44 -30 21 0 371 -350 371 -371 0 -9 7
-22 15 -29 8 -7 15 -20 15 -30 0 -10 7 -23 15 -30 8 -7 15 -20 15 -30 0 -10 7
-23 15 -30 8 -7 15 -20 15 -30 0 -10 7 -23 15 -30 8 -7 15 -20 15 -30 0 -10 7
-23 15 -30 8 -7 15 -27 15 -45 0 -18 7 -38 15 -45 9 -8 15 -30 15 -60 0 -30 6
-52 15 -60 13 -11 15 -56 15 -297 0 -243 -2 -284 -15 -289 -11 -5 -15 -21 -15
-60 0 -39 -4 -56 -15 -60 -10 -4 -15 -20 -15 -45 0 -26 -5 -42 -15 -45 -10 -4
-15 -20 -15 -45 0 -26 -5 -42 -15 -45 -8 -4 -15 -17 -15 -30 0 -14 -7 -27 -15
-30 -8 -4 -15 -17 -15 -30 0 -14 -7 -27 -15 -30 -8 -4 -15 -16 -15 -28 0 -12
-13 -33 -30 -46 -16 -14 -29 -34 -30 -45 0 -12 -13 -32 -30 -45 -16 -14 -29
-33 -30 -43 0 -23 -252 -277 -274 -277 -9 0 -36 -20 -59 -45 -24 -25 -53 -45
-64 -45 -12 0 -23 -7 -27 -15 -3 -8 -16 -15 -30 -15 -13 0 -26 -7 -30 -15 -3
-8 -16 -15 -30 -15 -13 0 -26 -7 -30 -15 -3 -8 -16 -15 -30 -15 -13 0 -26 -7
-30 -15 -3 -8 -16 -15 -30 -15 -13 0 -26 -7 -30 -15 -3 -10 -19 -15 -45 -15
-25 0 -41 -5 -45 -15 -4 -11 -21 -15 -60 -15 -39 0 -55 -4 -60 -15 -8 -23
-524 -23 -532 0 -5 11 -21 15 -60 15 -39 0 -56 4 -60 15 -4 10 -20 15 -45 15
-26 0 -42 5 -45 15 -4 8 -17 15 -30 15 -14 0 -27 7 -30 15 -4 8 -17 15 -30 15
-14 0 -27 7 -30 15 -4 8 -16 15 -28 15 -37 0 -38 12 -6 41 16 15 30 36 30 46
0 11 13 30 30 43 16 14 29 35 30 48 0 12 7 25 15 28 8 4 15 17 15 30 0 14 7
27 15 30 8 4 15 17 15 30 0 14 7 27 15 30 8 4 15 17 15 30 0 14 7 27 15 30 10
4 15 20 15 45 0 26 5 42 15 45 10 4 15 20 15 45 0 26 5 42 15 45 10 4 15 20
15 45 0 26 5 42 15 45 13 5 15 45 15 269 0 221 -2 265 -15 275 -8 7 -15 27
-15 45 0 18 -7 38 -15 45 -8 7 -15 27 -15 45 0 18 -7 38 -15 45 -8 7 -15 20
-15 30 0 10 -7 23 -15 30 -8 7 -15 20 -15 29 0 9 -27 43 -60 76 -32 32 -60 68
-62 79 -2 13 -12 22 -25 24 -12 2 -27 10 -33 18 -7 8 -19 14 -28 14 -22 0 -62
-40 -62 -62 0 -9 34 -51 75 -91 41 -41 75 -83 75 -93 1 -10 14 -30 30 -44 23
-19 30 -32 30 -61 0 -24 5 -39 15 -43 8 -3 15 -16 15 -30 0 -13 7 -26 15 -30
12 -4 15 -24 15 -90 0 -65 3 -85 15 -90 12 -4 15 -27 15 -114 0 -85 -3 -112
-15 -122 -10 -9 -15 -32 -15 -75 0 -43 -5 -66 -15 -75 -9 -8 -15 -30 -15 -60
0 -30 -6 -52 -15 -60 -8 -7 -15 -20 -15 -30 0 -10 -7 -23 -15 -30 -8 -7 -15
-27 -15 -45 0 -18 -7 -38 -15 -45 -8 -7 -15 -20 -15 -30 0 -10 -7 -23 -15 -30
-8 -7 -15 -20 -15 -29 0 -10 -13 -30 -30 -46 -16 -16 -30 -36 -30 -45 0 -9
-13 -29 -30 -45 -16 -16 -30 -36 -30 -45 0 -9 -13 -29 -30 -45 -16 -16 -30
-36 -30 -44 0 -21 -310 -331 -330 -331 -9 0 -36 -20 -60 -45 -24 -25 -51 -45
-60 -45 -9 0 -29 -14 -45 -30 -16 -17 -36 -30 -45 -30 -9 0 -29 -13 -45 -30
-16 -16 -36 -30 -46 -30 -9 0 -22 -7 -29 -15 -7 -8 -20 -15 -30 -15 -10 0 -23
-7 -30 -15 -7 -8 -20 -15 -30 -15 -10 0 -23 -7 -30 -15 -7 -8 -20 -15 -30 -15
-10 0 -23 -7 -30 -15 -7 -8 -27 -15 -45 -15 -18 0 -38 -7 -45 -15 -7 -8 -27
-15 -45 -15 -18 0 -38 -7 -45 -15 -7 -8 -27 -15 -45 -15 -18 0 -38 -7 -45 -15
-8 -9 -30 -15 -60 -15 -30 0 -52 -6 -60 -15 -10 -12 -38 -15 -134 -15 -90 -1
-126 -4 -140 -15 -25 -19 -60 -19 -76 0 -10 12 -40 15 -150 15 -110 0 -140 3
-150 15 -8 9 -30 15 -60 15 -30 0 -52 6 -60 15 -8 9 -30 15 -60 15 -30 0 -52
6 -60 15 -7 8 -20 15 -30 15 -10 0 -23 7 -30 15 -7 8 -27 15 -45 15 -18 0 -38
7 -45 15 -7 8 -20 15 -30 15 -10 0 -23 7 -30 15 -7 8 -20 15 -29 15 -10 0 -30
13 -46 30 -16 16 -36 30 -45 30 -9 0 -29 13 -45 30 -16 16 -36 30 -44 30 -21
0 -271 250 -271 271 0 9 -7 22 -15 29 -8 7 -15 20 -15 29 0 10 -14 30 -30 46
-17 16 -30 36 -30 46 0 9 -7 22 -15 29 -8 7 -15 27 -15 45 0 18 -7 38 -15 45
-9 8 -15 30 -15 60 0 30 -6 52 -15 60 -9 8 -15 30 -15 60 0 30 -6 52 -15 60
-22 19 -22 521 0 540 9 8 15 30 15 60 0 30 6 52 15 60 8 7 15 27 15 45 0 18 7
38 15 45 8 7 15 27 15 45 0 18 7 38 15 45 8 7 15 20 15 29 0 10 14 30 30 46
17 16 30 36 30 45 0 9 14 29 30 45 17 16 30 36 30 44 0 20 130 151 150 151 9
0 36 20 60 45 24 25 51 45 60 45 30 0 62 45 58 81 -3 32 -5 34 -46 37 -31 2
-44 -1 -48 -12 -3 -9 -16 -16 -28 -16 -12 0 -33 -13 -46 -30 -14 -16 -33 -29
-44 -30 -21 0 -246 -226 -246 -247 0 -8 -13 -28 -30 -45 -16 -16 -30 -36 -30
-44 0 -9 -7 -22 -15 -30 -8 -9 -15 -24 -15 -35 0 -10 -4 -19 -10 -19 -5 0 -13
-12 -16 -27 -4 -15 -13 -34 -21 -41 -7 -7 -13 -27 -13 -43 0 -17 -7 -37 -15
-45 -8 -9 -15 -29 -15 -45 0 -17 -7 -37 -15 -45 -10 -10 -15 -35 -15 -75 0
-40 -5 -65 -15 -75 -22 -23 -22 -445 0 -468 17 -16 21 -101 5 -91 -5 3 -10 14
-10 24 0 9 -13 30 -30 46 -16 16 -30 36 -30 45 0 9 -14 29 -30 45 -17 16 -30
36 -30 46 0 9 -7 22 -15 29 -8 7 -15 27 -15 45 0 18 -7 38 -15 45 -8 7 -15 20
-15 30 0 10 -7 23 -15 30 -8 7 -15 27 -15 45 0 18 -7 38 -15 45 -9 8 -15 30
-15 60 0 30 -6 52 -15 60 -9 8 -15 30 -15 60 0 30 -6 52 -15 60 -11 9 -15 35
-15 105 0 70 -4 96 -15 105 -23 19 -23 671 0 690 12 10 15 37 15 120 0 83 3
110 15 120 11 9 15 33 15 92 0 85 13 106 49 74 10 -9 24 -16 32 -16 9 0 28
-13 44 -30 16 -16 36 -30 46 -30 9 0 22 -7 29 -15 7 -8 20 -15 29 -15 10 0 30
-14 46 -30 16 -17 36 -30 46 -30 9 0 22 -7 29 -15 7 -8 27 -15 45 -15 18 0 38
-7 45 -15 7 -8 20 -15 30 -15 10 0 23 -7 30 -15 7 -8 27 -15 45 -15 18 0 38
-7 45 -15 7 -8 20 -15 30 -15 10 0 23 -7 30 -15 7 -8 27 -15 45 -15 18 0 38
-7 45 -15 8 -9 30 -15 60 -15 30 0 52 -6 60 -15 7 -8 27 -15 45 -15 18 0 38
-7 45 -15 8 -9 30 -15 60 -15 30 0 52 -6 60 -15 9 -10 32 -15 75 -15 43 0 66
-5 75 -15 9 -10 32 -15 75 -15 43 0 66 -5 75 -15 9 -11 33 -15 90 -15 57 0 81
-4 90 -15 10 -12 40 -15 150 -15 110 0 140 -3 150 -15 11 -13 67 -15 395 -15
328 0 384 2 395 15 10 12 43 15 180 15 137 0 170 3 180 15 10 12 36 15 117 15
79 0 108 4 119 15 11 11 37 15 90 15 54 0 80 4 90 15 11 11 37 15 90 15 54 0
80 4 90 15 10 10 35 15 75 15 40 0 65 5 75 15 9 9 34 15 60 15 27 0 52 6 60
15 9 8 29 15 45 15 17 0 37 7 45 15 9 8 29 15 45 15 17 0 37 7 45 15 9 8 31
15 50 15 19 0 34 4 34 9 0 14 38 24 66 17 l24 -6 0 -174 c0 -145 2 -175 15
-180 12 -4 15 -29 15 -136 l0 -130 40 0 c61 0 80 25 80 104 0 44 -5 67 -15 76
-12 10 -15 43 -15 180 0 137 -3 170 -15 180 -10 9 -15 31 -15 72 0 49 4 65 23
84 12 13 30 24 40 24 9 0 37 20 60 45 24 25 51 45 60 45 22 0 57 35 57 58 0
10 13 29 30 42 16 14 29 35 30 48 0 12 7 25 15 28 10 4 15 20 15 45 0 26 5 42
15 45 22 9 21 136 0 154 -13 11 -13 15 -3 21 18 12 25 11 42 -6z"/>
<path d="M2848 7317 c-7 -8 -26 -17 -41 -21 -15 -3 -27 -11 -27 -16 0 -6 -8
-10 -19 -10 -24 0 -71 -44 -71 -67 0 -41 -34 -53 -144 -53 l-104 0 -71 -70
-71 -71 0 -110 c0 -88 3 -111 15 -115 8 -4 15 -15 15 -26 0 -26 132 -158 158
-158 11 0 22 -7 26 -15 3 -10 19 -15 45 -15 25 0 41 -5 45 -15 3 -10 19 -15
45 -15 25 0 41 -5 45 -15 4 -12 27 -15 114 -15 101 0 110 2 130 23 12 13 22
30 22 39 0 9 7 21 15 28 8 7 15 20 15 30 0 10 7 23 15 30 8 7 15 20 15 30 0
10 7 23 15 30 8 7 15 20 15 30 0 10 7 23 15 30 8 7 15 27 15 45 0 18 7 38 15
45 12 10 15 40 15 155 0 115 -3 145 -15 155 -8 7 -15 20 -15 29 0 30 -72 91
-107 91 -17 0 -36 7 -43 15 -15 19 -64 20 -82 2z m110 -133 c38 -27 52 -67 52
-153 0 -44 -4 -90 -9 -103 -5 -13 -20 -56 -32 -95 -12 -40 -26 -73 -30 -73 -4
0 -10 -12 -14 -27 -3 -16 -18 -46 -34 -68 -24 -36 -31 -40 -67 -39 -54 1 -167
20 -190 32 -11 5 -40 19 -66 31 -127 59 -203 203 -149 285 45 68 143 89 194
42 34 -31 58 -39 89 -27 19 7 28 23 43 75 18 64 55 113 96 129 29 11 95 7 117
-9z"/>
<path d="M3924 6595 c-4 -8 -17 -15 -30 -15 -14 0 -27 -7 -30 -15 -5 -12 -28
-15 -116 -15 l-110 0 -54 -54 -54 -54 0 -111 c0 -90 3 -113 15 -117 8 -4 15
-17 15 -30 0 -12 6 -27 14 -31 8 -4 16 -19 18 -33 2 -18 10 -26 27 -28 14 -2
36 -17 50 -33 19 -22 34 -29 62 -29 24 0 39 -5 43 -15 4 -11 20 -15 54 -15 32
0 54 5 62 15 7 8 27 15 45 15 18 0 38 7 45 15 7 8 20 15 29 15 21 0 91 70 91
92 0 8 7 21 15 28 8 7 15 27 15 45 0 18 7 38 15 45 11 9 15 32 15 80 0 48 -4
71 -15 80 -8 7 -15 27 -15 45 0 18 -7 38 -15 45 -8 7 -15 20 -15 29 0 10 -10
27 -23 39 -19 18 -35 22 -85 22 -46 0 -64 -4 -68 -15z m88 -97 c21 -17 48
-102 48 -150 0 -40 -9 -47 -32 -25 -7 7 -20 16 -28 20 -8 4 -22 11 -30 16 -53
31 -96 41 -178 41 -62 0 -94 -4 -108 -15 -46 -35 -76 2 -36 46 17 17 30 19
118 17 96 -3 100 -2 149 29 55 36 73 39 97 21z m-120 -219 c62 -24 108 -64
108 -93 -1 -26 -31 -48 -97 -70 -48 -16 -57 -16 -115 -1 -68 17 -100 36 -132
78 -26 35 -16 54 45 84 56 28 123 29 191 2z"/>
<path d="M536 3774 c-3 -9 -6 -28 -6 -44 0 -40 10 -60 29 -60 10 0 30 -13 46
-30 16 -16 36 -30 45 -30 9 0 29 -13 45 -30 16 -16 36 -30 46 -30 9 0 22 -7
29 -15 7 -8 20 -15 30 -15 10 0 23 -7 30 -15 7 -8 20 -15 30 -15 10 0 23 -7
30 -15 7 -8 27 -15 45 -15 18 0 38 -7 45 -15 7 -8 20 -15 30 -15 10 0 23 -7
30 -15 7 -8 27 -15 45 -15 18 0 38 -7 45 -15 7 -8 27 -15 45 -15 18 0 38 -7
45 -15 8 -9 30 -15 60 -15 30 0 52 -6 60 -15 8 -9 30 -15 60 -15 30 0 52 -6
60 -15 8 -9 30 -15 60 -15 30 0 52 -6 60 -15 9 -10 32 -15 75 -15 43 0 66 -5
75 -15 9 -11 35 -15 105 -15 70 0 96 -4 105 -15 10 -12 40 -15 150 -15 110 0
140 -3 150 -15 11 -13 75 -15 470 -15 395 0 459 2 470 15 10 12 43 15 180 15
137 0 170 3 180 15 9 11 35 15 102 15 66 0 93 4 104 15 11 11 37 15 90 15 54
0 80 4 90 15 9 9 34 15 60 15 27 0 52 6 60 15 9 8 29 15 45 15 35 0 69 27 69
55 0 50 -89 87 -120 50 -8 -9 -30 -15 -60 -15 -30 0 -52 -6 -60 -15 -9 -11
-33 -15 -90 -15 -57 0 -81 -4 -90 -15 -9 -11 -35 -15 -105 -15 -70 0 -96 -4
-105 -15 -10 -12 -40 -15 -150 -15 -110 0 -140 -3 -150 -15 -11 -13 -82 -15
-527 -15 -447 0 -514 2 -519 15 -5 12 -28 15 -119 15 -91 0 -114 3 -119 15 -4
12 -26 15 -105 15 -79 0 -100 3 -105 15 -4 11 -22 15 -75 15 -52 0 -70 4 -75
15 -4 11 -21 15 -60 15 -39 0 -55 4 -60 15 -4 11 -21 15 -60 15 -39 0 -55 4
-60 15 -3 10 -19 15 -45 15 -25 0 -41 5 -45 15 -3 10 -19 15 -45 15 -25 0 -41
5 -45 15 -3 10 -19 15 -45 15 -25 0 -41 5 -45 15 -3 10 -19 15 -45 15 -25 0
-41 5 -45 15 -3 8 -16 15 -30 15 -13 0 -26 7 -30 15 -3 8 -16 15 -30 15 -13 0
-26 7 -30 15 -3 8 -16 15 -30 15 -13 0 -26 7 -30 15 -3 8 -16 15 -28 15 -13 1
-34 14 -48 30 -13 17 -33 30 -45 30 -11 1 -31 14 -45 30 -19 23 -32 30 -61 30
-24 0 -39 -5 -43 -16z"/>
</g>
</svg>
