<svg width="32" height="33" viewBox="0 0 32 33" fill="none" xmlns="http://www.w3.org/2000/svg">
<g clip-path="url(#clip0_0_2712)">
<path d="M16 0.544434C7.16533 0.544434 0 7.70977 0 16.5444C0 25.3791 7.16533 32.5444 16 32.5444C24.8347 32.5444 32 25.3791 32 16.5444C32 7.70977 24.8387 0.544434 16 0.544434ZM7.89333 17.0818L7.96133 16.9738L12.1253 10.4618C12.1393 10.4404 12.1587 10.4231 12.1816 10.4118C12.2045 10.4004 12.23 10.3955 12.2555 10.3974C12.281 10.3993 12.3055 10.408 12.3265 10.4226C12.3474 10.4372 12.3641 10.4572 12.3747 10.4804C13.068 12.0391 13.6707 13.9778 13.388 15.1844C13.2707 15.6804 12.9413 16.3524 12.5693 16.9738C12.5216 17.0647 12.4696 17.1532 12.4133 17.2391C12.3999 17.2583 12.3819 17.2738 12.3609 17.2842C12.34 17.2947 12.3167 17.2998 12.2933 17.2991H8.01733C7.99181 17.2995 7.96666 17.293 7.94455 17.2802C7.92243 17.2675 7.90419 17.249 7.89174 17.2267C7.8793 17.2044 7.87313 17.1791 7.87388 17.1536C7.87463 17.1281 7.88227 17.1033 7.896 17.0818H7.89333ZM26.4453 19.3218C26.4457 19.3502 26.4376 19.3782 26.4222 19.4021C26.4068 19.4261 26.3847 19.4449 26.3587 19.4564C26.0347 19.5938 24.932 20.1031 24.4733 20.7391C23.3027 22.3684 22.4093 24.6991 20.4093 24.6991H12.0707C11.3666 24.6981 10.6697 24.5583 10.0197 24.2878C9.36967 24.0172 8.77935 23.6213 8.28244 23.1225C7.78553 22.6237 7.39178 22.032 7.12369 21.3809C6.8556 20.7299 6.71842 20.0325 6.72 19.3284V19.2324C6.72 19.1551 6.784 19.0911 6.864 19.0911H11.5107C11.604 19.0911 11.6707 19.1751 11.664 19.2671C11.6293 19.5684 11.6867 19.8791 11.8307 20.1604C12.1053 20.7204 12.6787 21.0698 13.296 21.0698H15.5973V19.2738H13.32C13.2933 19.2735 13.2672 19.2659 13.2445 19.2519C13.2218 19.2379 13.2033 19.2179 13.1911 19.1942C13.1789 19.1705 13.1734 19.1439 13.1752 19.1172C13.177 19.0906 13.186 19.065 13.2013 19.0431L13.2853 18.9231C13.4987 18.6151 13.8067 18.1418 14.1133 17.6004C14.3213 17.2351 14.524 16.8458 14.6867 16.4538C14.7187 16.3844 14.744 16.3111 14.7733 16.2404C14.8173 16.1151 14.8627 15.9978 14.8947 15.8818C14.9261 15.7834 14.955 15.6843 14.9813 15.5844C15.0573 15.2511 15.0893 14.8991 15.0893 14.5351C15.0893 14.3911 15.084 14.2404 15.0707 14.0991C15.064 13.9431 15.044 13.7858 15.0253 13.6298C15.0104 13.4902 14.9891 13.3514 14.9613 13.2138C14.9255 13.0042 14.8819 12.7961 14.8307 12.5898L14.812 12.5098C14.772 12.3658 14.7373 12.2298 14.692 12.0871C14.565 11.649 14.4191 11.2166 14.2547 10.7911C14.1974 10.6311 14.1342 10.4732 14.0653 10.3178C13.9693 10.0804 13.8707 9.86577 13.7813 9.66443C13.7369 9.57818 13.6951 9.49058 13.656 9.40177C13.6126 9.30595 13.5668 9.21126 13.5187 9.11777C13.4867 9.0471 13.448 8.9791 13.4227 8.9151L13.1413 8.39777C13.1027 8.3271 13.1667 8.24043 13.244 8.2631L15.004 8.7391H15.0173L15.248 8.80577L15.504 8.87777L15.5973 8.9031V7.8591C15.5973 7.35377 16 6.94443 16.5027 6.94443C16.6214 6.94411 16.7389 6.96781 16.8482 7.0141C16.9575 7.06038 17.0563 7.1283 17.1387 7.21377C17.3089 7.38548 17.4047 7.6173 17.4053 7.8591V9.4111L17.5933 9.4631C17.6067 9.46977 17.6227 9.47643 17.6347 9.48577C17.68 9.51777 17.7467 9.56843 17.8307 9.63243C17.8973 9.6831 17.968 9.7471 18.0507 9.8151C18.314 10.0296 18.5692 10.2538 18.816 10.4871C19.1013 10.7524 19.4213 11.0631 19.728 11.4084C19.8147 11.5071 19.8973 11.6031 19.984 11.7098C20.0667 11.8151 20.16 11.9178 20.2373 12.0191C20.3427 12.1578 20.4507 12.3018 20.5507 12.4511C20.5947 12.5218 20.6493 12.5951 20.6907 12.6658C20.8187 12.8551 20.928 13.0498 21.0333 13.2458C21.0787 13.3351 21.1227 13.4338 21.1613 13.5298C21.28 13.7924 21.3733 14.0578 21.4307 14.3271C21.4496 14.3843 21.4626 14.4432 21.4693 14.5031V14.5164C21.488 14.5924 21.4947 14.6764 21.5013 14.7618C21.5389 15.1559 21.4907 15.5534 21.36 15.9271C21.3187 16.0391 21.28 16.1538 21.2293 16.2658C21.1293 16.4924 21.0147 16.7231 20.8773 16.9351C20.832 17.0151 20.7773 17.0978 20.7267 17.1778C20.6693 17.2618 20.608 17.3418 20.5573 17.4178C20.484 17.5187 20.4071 17.617 20.3267 17.7124C20.256 17.8084 20.1853 17.9044 20.1053 17.9911C19.9973 18.1218 19.892 18.2444 19.7787 18.3618C19.7147 18.4391 19.6453 18.5191 19.5707 18.5884C19.5013 18.6684 19.4267 18.7391 19.3627 18.8031C19.2507 18.9151 19.1627 18.9991 19.0853 19.0724L18.9027 19.2351C18.8772 19.2606 18.8427 19.275 18.8067 19.2751H17.4053V21.0698H19.168C19.5613 21.0698 19.936 20.9311 20.24 20.6724C20.3427 20.5831 20.7933 20.1924 21.328 19.6031C21.3454 19.583 21.3688 19.569 21.3947 19.5631L26.2613 18.1538C26.2827 18.1476 26.3052 18.1464 26.3271 18.1504C26.349 18.1544 26.3696 18.1634 26.3875 18.1767C26.4053 18.19 26.4198 18.2073 26.4298 18.2271C26.4399 18.247 26.4452 18.2689 26.4453 18.2911V19.3218Z" fill="#0D173B"/>
</g>
<defs>
<clipPath id="clip0_0_2712">
<rect width="32" height="32" fill="white" transform="translate(0 0.544434)"/>
</clipPath>
</defs>
</svg>
