<svg width="48" height="48" viewBox="0 0 48 48" fill="none" xmlns="http://www.w3.org/2000/svg">
<g clip-path="url(#clip0_0_3393)">
<path d="M24.0355 0C11.0135 0 0.452148 10.5614 0.452148 23.5833C0.452148 36.6052 11.0135 47.1666 24.0355 47.1666C37.0574 47.1666 47.6188 36.6052 47.6188 23.5833C47.6188 10.5614 37.0633 0 24.0355 0ZM12.0866 24.3753L12.1868 24.2161L18.3244 14.6177C18.3449 14.5862 18.3736 14.5607 18.4073 14.544C18.4411 14.5273 18.4787 14.52 18.5163 14.5228C18.5538 14.5256 18.5899 14.5385 18.6208 14.56C18.6517 14.5815 18.6763 14.611 18.6919 14.6452C19.7138 16.9427 20.6021 19.8002 20.1855 21.5787C20.0125 22.3098 19.5271 23.3003 18.9788 24.2161C18.9085 24.3501 18.8317 24.4806 18.7489 24.6072C18.729 24.6355 18.7025 24.6583 18.6716 24.6738C18.6407 24.6892 18.6065 24.6967 18.572 24.6957H12.2694C12.2317 24.6962 12.1947 24.6866 12.1621 24.6678C12.1295 24.649 12.1026 24.6218 12.0842 24.5889C12.0659 24.5561 12.0568 24.5189 12.0579 24.4813C12.059 24.4437 12.0703 24.407 12.0905 24.3753H12.0866ZM39.4314 27.677C39.4319 27.719 39.4201 27.7601 39.3974 27.7954C39.3747 27.8307 39.3421 27.8585 39.3037 27.8755C38.8261 28.0779 37.2009 28.8286 36.5248 29.7661C34.7993 32.1676 33.4826 35.603 30.5346 35.603H18.2438C17.2061 35.6014 16.1788 35.3954 15.2207 34.9966C14.2626 34.5979 13.3925 34.0143 12.6601 33.2791C11.9277 32.544 11.3473 31.6717 10.9522 30.7121C10.557 29.7526 10.3548 28.7246 10.3571 27.6868V27.5453C10.3571 27.4313 10.4515 27.337 10.5694 27.337H17.4184C17.556 27.337 17.6542 27.4608 17.6444 27.5964C17.5933 28.0406 17.6778 28.4985 17.89 28.9132C18.2949 29.7386 19.14 30.2535 20.0499 30.2535H23.442V27.6062H20.0853C20.0459 27.6058 20.0075 27.5947 19.974 27.574C19.9405 27.5534 19.9133 27.5239 19.8953 27.489C19.8773 27.454 19.8692 27.4148 19.8719 27.3755C19.8745 27.3363 19.8878 27.2985 19.9104 27.2662L20.0342 27.0894C20.3486 26.6354 20.8026 25.9377 21.2546 25.1398C21.5612 24.6013 21.8599 24.0275 22.0997 23.4497C22.1468 23.3475 22.1842 23.2394 22.2274 23.1352C22.2923 22.9505 22.3591 22.7776 22.4063 22.6066C22.4525 22.4616 22.4951 22.3155 22.534 22.1683C22.646 21.677 22.6932 21.1582 22.6932 20.6216C22.6932 20.4094 22.6853 20.1873 22.6657 19.979C22.6558 19.7491 22.6264 19.5172 22.5989 19.2872C22.5769 19.0815 22.5454 18.8769 22.5045 18.6741C22.4516 18.3652 22.3874 18.0584 22.3119 17.7543L22.2844 17.6364C22.2255 17.4241 22.1744 17.2237 22.1075 17.0134C21.9204 16.3676 21.7053 15.7303 21.4629 15.1032C21.3785 14.8673 21.2854 14.6345 21.1839 14.4055C21.0424 14.0557 20.8969 13.7393 20.7652 13.4425C20.6997 13.3154 20.6381 13.1862 20.5805 13.0553C20.5166 12.9141 20.4491 12.7745 20.3781 12.6367C20.3309 12.5326 20.2739 12.4323 20.2366 12.338L19.8219 11.5755C19.7649 11.4713 19.8593 11.3436 19.9732 11.377L22.5674 12.0786H22.5871L22.9271 12.1769L23.3044 12.283L23.442 12.3203V10.7815C23.442 10.0367 24.0355 9.43333 24.7764 9.43333C24.9513 9.43286 25.1246 9.46778 25.2857 9.53601C25.4468 9.60423 25.5924 9.70434 25.7138 9.83031C25.9647 10.0834 26.1059 10.4251 26.1069 10.7815V13.0691L26.384 13.1457C26.4036 13.1556 26.4272 13.1654 26.4449 13.1791C26.5117 13.2263 26.61 13.301 26.7338 13.3953C26.8321 13.47 26.9362 13.5643 27.0581 13.6646C27.4461 13.9807 27.8224 14.3111 28.1861 14.6551C28.6067 15.0462 29.0784 15.5041 29.5304 16.0131C29.6581 16.1585 29.78 16.3 29.9077 16.4572C30.0296 16.6125 30.1671 16.7638 30.2811 16.9132C30.4364 17.1176 30.5956 17.3298 30.743 17.5499C30.8078 17.6541 30.8884 17.7622 30.9493 17.8663C31.138 18.1454 31.2991 18.4323 31.4544 18.7212C31.5212 18.8529 31.5861 18.9983 31.6431 19.1398C31.818 19.527 31.9555 19.9181 32.04 20.3151C32.068 20.3993 32.0871 20.4863 32.097 20.5745V20.5941C32.1245 20.7062 32.1344 20.83 32.1442 20.9557C32.1995 21.5366 32.1285 22.1226 31.9359 22.6734C31.875 22.8385 31.818 23.0075 31.7433 23.1726C31.5959 23.5067 31.4269 23.8467 31.2245 24.1591C31.1576 24.2771 31.0771 24.3989 31.0024 24.5168C30.9179 24.6406 30.8275 24.7586 30.7528 24.8706C30.6447 25.0194 30.5313 25.1643 30.4128 25.3049C30.3086 25.4464 30.2045 25.5879 30.0866 25.7156C29.9274 25.9082 29.7721 26.089 29.6051 26.262C29.5107 26.376 29.4085 26.4939 29.2985 26.5961C29.1963 26.714 29.0862 26.8182 28.9919 26.9125C28.8268 27.0776 28.6971 27.2014 28.5831 27.3095L28.3139 27.5492C28.2764 27.5869 28.2255 27.6081 28.1724 27.6082H26.1069V30.2535H28.705C29.2847 30.2535 29.837 30.0491 30.285 29.6678C30.4364 29.5361 31.1006 28.9603 31.8887 28.0917C31.9144 28.0621 31.9488 28.0414 31.987 28.0327L39.1602 25.9554C39.1917 25.9463 39.2249 25.9446 39.2572 25.9505C39.2894 25.9563 39.3199 25.9696 39.3462 25.9892C39.3724 26.0088 39.3938 26.0343 39.4086 26.0635C39.4234 26.0928 39.4312 26.125 39.4314 26.1578V27.677Z" fill="white"/>
</g>
<defs>
<clipPath id="clip0_0_3393">
<rect width="47.1666" height="47.1666" fill="white" transform="translate(0.452148)"/>
</clipPath>
</defs>
</svg>
