<svg width="70" height="105" viewBox="0 0 70 105" fill="none" xmlns="http://www.w3.org/2000/svg">
<path opacity="0.3" fill-rule="evenodd" clip-rule="evenodd" d="M29.7464 41.6472C23.1887 43.5611 13.7769 39.0883 7.01902 30.313C-0.899802 20.03 -2.17581 7.73312 4.16897 2.84704C10.5138 -2.03905 22.0767 2.33596 29.9955 12.6189C36.7766 21.4244 38.6866 31.7068 35.1113 37.5478L43.7006 44.3468C48.6319 49.3844 49.181 53.758 48.2812 58.4898C47.1565 64.4046 48.7455 71.3849 58.7173 76.9583C68.6891 82.5317 67.3503 87.3493 63.9079 91.8935C60.4655 96.4377 63.3022 99.3018 67.3274 101.251C72.0215 103.524 68.7419 105 67.2682 104.452C63.63 104.098 56.4139 101.83 56.6544 95.5862C56.8093 91.5633 57.9213 89.654 58.6699 88.3684C59.3737 87.1599 59.7565 86.5026 58.7218 85.159C57.8297 84.0007 55.9591 83.0015 53.7806 81.8378C50.7439 80.2158 47.1091 78.2743 44.693 75.1369C40.727 69.9869 40.2355 62.7928 41.6972 59.7739C43.0311 57.0189 40.4514 47.8169 29.7464 41.6472Z" fill="white"/>
</svg>
