<svg width="70" height="105" viewBox="0 0 70 105" fill="none" xmlns="http://www.w3.org/2000/svg">
<path fill-rule="evenodd" clip-rule="evenodd" d="M40.155 41.6472C46.7127 43.5611 56.1245 39.0883 62.8823 30.313C70.8012 20.03 72.0772 7.73312 65.7324 2.84704C59.3876 -2.03905 47.8247 2.33596 39.9058 12.6189C33.1247 21.4244 31.2148 31.7068 34.7901 37.5478L26.2007 44.3468C21.2695 49.3844 20.7203 53.758 21.6201 58.4898C22.7449 64.4046 21.1559 71.3849 11.1841 76.9583C1.21225 82.5317 2.55102 87.3493 5.99342 91.8935C9.43582 96.4377 6.59916 99.3018 2.57397 101.251C-2.12011 103.524 1.15943 105 2.6332 104.452C6.27133 104.098 13.4875 101.83 13.247 95.5862C13.092 91.5633 11.9801 89.654 11.2314 88.3684C10.5277 87.1599 10.1449 86.5026 11.1796 85.159C12.0717 84.0007 13.9423 83.0015 16.1208 81.8378C19.1575 80.2158 22.7923 78.2743 25.2084 75.1369C29.1744 69.9869 29.6659 62.7928 28.2042 59.7739C26.8703 57.0189 29.4499 47.8169 40.155 41.6472Z" fill="white"/>
</svg>
