<svg width="71" height="75" viewBox="0 0 71 75" fill="none" xmlns="http://www.w3.org/2000/svg">
<path fill-rule="evenodd" clip-rule="evenodd" d="M22.5171 19.594C25.9061 14.3832 23.2415 4.49917 29.222 2.58537C34.6457 0.849751 35.3134 12.6644 40.7631 13.7552C46.1183 14.8271 52.6538 4.28198 56.4093 8.02722C60.7551 12.3611 50.5493 21.0167 53.4445 26.4019C55.8756 30.9237 66.9845 25.754 68.5718 30.6495C70.0753 35.2867 60.5138 37.5101 58.5549 42.163C57.1662 45.4614 59.5988 48.9915 59.3752 52.4933C59.0855 57.0311 61.2317 63.6787 57.0393 65.8999C52.178 68.4754 47.0343 62.5034 41.6938 61.861C38.7628 61.5085 35.5742 61.6527 32.8692 62.9927C27.6976 65.5547 24.514 74.1976 19.0037 73.1011C14.1135 72.128 17.1579 63.5233 14.695 59.3763C12.9293 56.4031 8.91265 55.4054 6.84588 52.6298C4.62465 49.6467 1.29566 46.3074 2.1989 42.5942C3.21129 38.4324 9.00133 36.9591 11.527 33.3858C13.3231 30.8448 12.8002 27.2851 14.7445 24.8451C16.6937 22.3989 20.8194 22.2042 22.5171 19.594Z" fill="white" stroke="#5447EF" stroke-width="3"/>
</svg>
