<svg width="107" height="126" viewBox="0 0 107 126" fill="none" xmlns="http://www.w3.org/2000/svg">
<path fill-rule="evenodd" clip-rule="evenodd" d="M25.3437 36.362C28.5154 26.6232 20.0592 12.0281 28.7616 6.43163C36.6538 1.35618 42.755 19.8756 51.8939 19.2876C60.8745 18.7098 66.7791 -0.860913 74.3536 3.49839C83.1186 8.54284 70.5665 26.6716 77.4711 34.0079C83.2689 40.1681 98.745 27.2023 103.359 34.3171C107.73 41.0564 93.4599 48.6729 92.3264 56.9139C91.5228 62.7558 96.9 67.3369 98.0376 73.0058C99.5116 80.3516 105.763 90.0167 100.037 95.3399C93.3983 101.512 82.6647 94.2008 73.8908 95.456C69.0755 96.1449 64.0621 97.7343 60.3283 101.021C53.1896 107.304 51.8086 122.417 42.5708 123.022C34.3725 123.559 35.5485 108.565 29.86 103.015C25.7817 99.0363 18.9632 99.1613 14.49 95.625C9.68256 91.8245 2.96002 87.9293 2.81408 81.6343C2.65049 74.5785 11.2376 69.7644 13.7336 63C15.5086 58.1897 13.1582 52.7471 15.2122 48.0345C17.2714 43.3098 23.7548 41.2405 25.3437 36.362Z" fill="white" stroke="#5447EF" stroke-width="5"/>
</svg>
